<svg
  width="41"
  height="41"
  viewBox="0 0 41 41"
  fill="none"
  xmlns="http://www.w3.org/2000/svg"
>
  <path
    d="M21.7374 16.1874C22.4209 15.504 22.4209 14.396 21.7374 13.7126C21.054 13.0291 19.946 13.0291 19.2626 13.7126L21.7374 16.1874ZM14.95 20.5L13.7126 19.2626C13.0291 19.946 13.0291 21.054 13.7126 21.7374L14.95 20.5ZM19.2626 27.2874C19.946 27.9709 21.054 27.9709 21.7374 27.2874C22.4209 26.604 22.4209 25.496 21.7374 24.8126L19.2626 27.2874ZM26.05 22.25C27.0165 22.25 27.8 21.4665 27.8 20.5C27.8 19.5335 27.0165 18.75 26.05 18.75V22.25ZM37.25 20.5C37.25 29.7508 29.7508 37.25 20.5 37.25V40.75C31.6838 40.75 40.75 31.6838 40.75 20.5H37.25ZM20.5 37.25C11.2492 37.25 3.75 29.7508 3.75 20.5H0.25C0.25 31.6838 9.31623 40.75 20.5 40.75V37.25ZM3.75 20.5C3.75 11.2492 11.2492 3.75 20.5 3.75V0.25C9.31623 0.25 0.25 9.31623 0.25 20.5H3.75ZM20.5 3.75C29.7508 3.75 37.25 11.2492 37.25 20.5H40.75C40.75 9.31623 31.6838 0.25 20.5 0.25V3.75ZM19.2626 13.7126L13.7126 19.2626L16.1874 21.7374L21.7374 16.1874L19.2626 13.7126ZM13.7126 21.7374L19.2626 27.2874L21.7374 24.8126L16.1874 19.2626L13.7126 21.7374ZM14.95 22.25H26.05V18.75H14.95V22.25Z"
    fill="#BDBDBD"
  />
</svg>
