<svg
  width="16"
  height="18"
  viewBox="0 0 16 18"
  fill="none"
  xmlns="http://www.w3.org/2000/svg"
>
  <path
    d="M6.16663 2.58333C6.16663 2.0971 6.35978 1.63079 6.7036 1.28697C7.04741 0.943154 7.51373 0.75 7.99996 0.75C8.48619 0.75 8.95251 0.943154 9.29632 1.28697C9.64014 1.63079 9.83329 2.0971 9.83329 2.58333C10.886 3.08111 11.7834 3.85597 12.4293 4.82486C13.0753 5.79375 13.4454 6.92015 13.5 8.08333V10.8333C13.5689 11.4032 13.7708 11.949 14.0892 12.4266C14.4076 12.9043 14.8338 13.3005 15.3333 13.5833H0.666626C1.16615 13.3005 1.59228 12.9043 1.91071 12.4266C2.22914 11.949 2.43098 11.4032 2.49996 10.8333V8.08333C2.55456 6.92015 2.92465 5.79375 3.57058 4.82486C4.21651 3.85597 5.11392 3.08111 6.16663 2.58333Z"
    fill="currentColor"
  />
  <path
    d="M5.25 13.5833V14.5C5.25 15.2293 5.53973 15.9288 6.05546 16.4445C6.57118 16.9603 7.27065 17.25 8 17.25C8.72935 17.25 9.42882 16.9603 9.94454 16.4445C10.4603 15.9288 10.75 15.2293 10.75 14.5V13.5833"
    fill="currentColor"
  />
</svg>
