<svg
  width="41"
  height="39"
  viewBox="0 0 41 39"
  fill="none"
  xmlns="http://www.w3.org/2000/svg"
>
  <g clip-path="url(#clip0_172_7134)">
    <path
      d="M-0.000214909 33.8438C0.066659 33.5879 0.125174 33.3299 0.200407 33.076C0.773015 31.1097 2.5201 29.6989 4.57647 29.5366C4.64126 29.5325 4.70395 29.5221 4.81889 29.5096C4.81889 29.3286 4.81889 29.16 4.81889 28.9915C4.81889 22.3476 4.81889 15.7057 4.81889 9.06179C4.81889 7.52618 5.41031 6.71884 6.88362 6.22986C7.65267 5.97392 8.41963 5.71174 9.20122 5.44748C9.20122 4.24688 9.19704 3.06499 9.20331 1.88311C9.20749 0.977975 9.79891 0.226815 10.6286 0.0499488C11.5606 -0.149806 12.4697 0.253865 12.8333 1.08201C12.9629 1.3754 13.0068 1.72081 13.0193 2.04749C13.0465 2.73415 13.0277 3.42289 13.0277 4.16573C13.8636 3.88898 14.6452 3.63513 15.4247 3.37295C17.9241 2.5344 20.4235 1.70001 22.9187 0.848967C23.297 0.719959 23.577 0.784463 23.8592 1.05496C25.6585 2.79657 27.462 4.52986 29.2676 6.26523C29.8339 6.81039 30.1202 7.46376 30.1181 8.25445C30.1098 10.6057 30.1119 12.957 30.1181 15.3083C30.1181 15.6454 30.045 15.9221 29.7002 16.0428C29.3136 16.1781 28.9353 15.8909 28.9186 15.4352C28.8998 14.9171 28.9123 14.399 28.9123 13.8809C28.9123 12.0331 28.904 10.1875 28.9186 8.33976C28.9228 7.82373 28.7514 7.42006 28.3794 7.06633C26.9145 5.67013 25.46 4.2656 23.949 2.81114C23.949 7.79876 23.949 12.724 23.949 17.6991C24.1204 17.6991 24.2897 17.6991 24.4589 17.6991C27.6752 17.6991 30.8914 17.6991 34.1055 17.6991C35.5976 17.6991 36.3395 18.4399 36.3395 19.9297C36.3395 22.9593 36.3395 25.9889 36.3395 29.0164C36.3395 29.1725 36.3395 29.3286 36.3395 29.4805C36.8661 29.5221 37.3614 29.5158 37.8379 29.6053C39.6289 29.9466 40.9475 31.5092 40.981 33.3278C41.0061 34.7095 40.9956 36.0911 40.9852 37.4727C40.9789 38.2842 40.4188 38.8793 39.6122 38.9646C39.4408 38.9834 39.2652 38.9813 39.0918 38.9813C26.695 38.9813 14.3004 38.9771 1.9036 38.9917C0.981996 38.9938 0.327885 38.7025 -0.00439453 37.8202C-0.000214909 36.501 -0.000214909 35.1714 -0.000214909 33.8438ZM22.7056 15.3291C22.5008 15.3936 22.3733 15.4311 22.2479 15.4727C18.271 16.8044 14.2962 18.1361 10.3193 19.4657C10.1688 19.5156 10.0142 19.5697 9.85742 19.5864C9.5544 19.6197 9.33079 19.4782 9.23675 19.1952C9.13644 18.8935 9.24302 18.6438 9.52096 18.4836C9.62336 18.4253 9.74457 18.3982 9.85742 18.3587C13.734 17.0624 17.6085 15.7661 21.483 14.4656C21.8864 14.3303 22.4339 14.2825 22.6366 13.9995C22.8414 13.7144 22.7035 13.1817 22.7056 12.7593C22.7098 12.1954 22.7077 11.6316 22.7077 11.0281C22.5154 11.0864 22.39 11.1218 22.2667 11.1634C18.2773 12.4992 14.2878 13.8351 10.3005 15.1689C10.15 15.2188 9.99326 15.2708 9.83862 15.2854C9.5335 15.3124 9.31825 15.1585 9.23257 14.8734C9.14689 14.5883 9.24511 14.347 9.50843 14.193C9.61083 14.1326 9.72994 14.1014 9.84279 14.064C13.9576 12.6844 18.0704 11.3007 22.1915 9.94196C22.6115 9.80255 22.7432 9.61736 22.7202 9.19288C22.6826 8.49166 22.7119 7.7842 22.7077 7.08089C22.7077 6.97061 22.6868 6.86033 22.6763 6.73965C22.5906 6.76254 22.553 6.77086 22.5154 6.78334C18.4612 8.13585 14.4069 9.49251 10.3548 10.845C10.1793 10.9033 9.97445 11.0156 9.8219 10.9699C9.60665 10.9074 9.35587 10.7618 9.24929 10.5787C9.10509 10.329 9.23048 10.0585 9.48962 9.90035C9.60038 9.83168 9.73412 9.79631 9.85951 9.75469C13.7612 8.45005 17.6629 7.1454 21.5625 5.83867C21.9282 5.7159 22.4297 5.67845 22.6115 5.42043C22.8038 5.14993 22.6993 4.66303 22.7035 4.26976C22.7118 3.59767 22.7056 2.92558 22.7056 2.21188C22.507 2.27222 22.3691 2.30759 22.2333 2.35337C17.2094 4.03256 12.1855 5.71174 7.16157 7.39301C6.3131 7.67808 6.01844 8.08799 6.01844 8.98897C6.01844 18.4482 6.01844 27.9074 6.01844 37.3666C6.01844 37.4956 6.03098 37.6225 6.03934 37.7682C7.10305 37.7682 8.13542 37.7682 9.20122 37.7682C9.20122 37.5976 9.20122 37.454 9.20122 37.3104C9.20122 36.0349 9.19913 34.7594 9.20122 33.4839C9.20331 32.5725 9.57112 32.0918 10.4614 31.8442C12.2064 31.3573 13.9493 30.8725 15.6943 30.3898C16.7726 30.0901 17.5166 30.654 17.5187 31.7735C17.5228 33.6191 17.5187 35.4669 17.5187 37.3125C17.5187 37.4561 17.5187 37.6017 17.5187 37.7578C19.2616 37.7578 20.971 37.7578 22.6784 37.7578C22.6784 33.1426 22.6784 28.5649 22.6784 23.9539C22.5488 23.9893 22.4485 24.0122 22.3503 24.0455C20.6576 24.6094 18.9669 25.1774 17.2763 25.7413C16.48 26.0076 15.688 26.2781 14.8876 26.5299C14.5532 26.634 14.2607 26.4675 14.1541 26.1595C14.0475 25.8516 14.1854 25.554 14.5073 25.4125C14.5929 25.3751 14.6828 25.3501 14.7706 25.321C17.13 24.5303 19.4915 23.7396 21.8508 22.9468C22.7035 22.6618 22.7035 22.6597 22.7035 21.7712C22.7035 21.0741 22.7035 20.3771 22.7035 19.6384C22.5133 19.6966 22.39 19.732 22.2667 19.7736C19.249 20.7807 16.2313 21.7899 13.2137 22.797C12.1792 23.1424 11.1489 23.5086 10.104 23.8228C9.88877 23.8873 9.5753 23.8228 9.38095 23.7001C9.25765 23.6231 9.17823 23.2797 9.24929 23.1424C9.3496 22.9468 9.58366 22.7658 9.79891 22.693C12.104 21.9043 14.4153 21.1386 16.7245 20.3646C18.6054 19.7341 20.4862 19.1057 22.3629 18.4648C22.4903 18.4211 22.6847 18.2942 22.6868 18.2006C22.716 17.2621 22.7056 16.3216 22.7056 15.3291ZM32.7618 34.0561C32.7618 33.8043 32.7513 33.5921 32.7638 33.3798C32.8412 31.8858 33.512 30.7435 34.8286 30.009C35.0773 29.8696 35.1483 29.7218 35.1483 29.4555C35.14 26.2677 35.1441 23.08 35.142 19.8922C35.142 19.1265 34.9122 18.8997 34.1368 18.8997C30.883 18.8976 27.6271 18.8997 24.3732 18.8997C24.2311 18.8997 24.089 18.9122 23.9365 18.9184C23.9365 23.983 23.9365 29.0081 23.9365 34.054C26.8768 34.0561 29.7921 34.0561 32.7618 34.0561ZM23.9323 37.7661C26.881 37.7661 29.8026 37.7661 32.7283 37.7661C32.7283 36.9234 32.7283 36.1098 32.7283 35.3025C29.7754 35.3025 26.8518 35.3025 23.9323 35.3025C23.9323 36.1389 23.9323 36.9442 23.9323 37.7661ZM33.9822 34.0457C35.9445 34.0457 37.8567 34.0457 39.7731 34.0457C39.8922 32.7806 39.5474 31.7235 38.4189 31.0972C37.3384 30.498 36.2058 30.5229 35.1629 31.2179C34.1619 31.8838 33.8714 32.8804 33.9822 34.0457ZM33.9801 37.7932C34.3542 37.7932 34.6865 37.7932 35.0167 37.7932C36.4294 37.7932 37.8421 37.7932 39.2548 37.7932C39.4826 37.7932 39.7668 37.8119 39.7793 37.5039C39.8065 36.7673 39.7877 36.0287 39.7877 35.2962C37.8233 35.2962 35.9111 35.2962 33.9801 35.2962C33.9801 36.1265 33.9801 36.9296 33.9801 37.7932ZM16.2836 37.7661C16.2836 35.6645 16.2836 33.5921 16.2836 31.4655C15.4832 31.6861 14.7309 31.8942 13.9869 32.1002C13.9869 34.0061 13.9869 35.883 13.9869 37.7661C14.7768 37.7661 15.5313 37.7661 16.2836 37.7661ZM12.7288 32.4518C12.0078 32.6536 11.314 32.8305 10.6369 33.0552C10.5241 33.0927 10.4154 33.3382 10.4133 33.4901C10.3966 34.8281 10.4029 36.166 10.405 37.506C10.405 37.5934 10.4238 37.6787 10.4321 37.7661C11.2137 37.7661 11.966 37.7661 12.7267 37.7661C12.7288 35.9912 12.7288 34.2454 12.7288 32.4518ZM1.20143 35.2879C1.20143 35.8393 1.20143 36.3553 1.20143 36.8714C1.19934 37.8036 1.10739 37.8015 2.14393 37.7952C3.02165 37.789 3.89937 37.7932 4.79172 37.7932C4.79172 36.9317 4.79172 36.1181 4.79172 35.2858C3.59635 35.2879 2.42606 35.2879 1.20143 35.2879ZM4.81889 34.0623C4.81889 33.488 4.81889 32.947 4.81889 32.406C4.81889 31.8525 4.81889 31.2991 4.81889 30.7497C3.04673 30.6915 1.18053 32.4581 1.28293 34.0602C2.4365 34.0623 3.59217 34.0623 4.81889 34.0623ZM10.4091 5.04173C10.8522 4.89608 11.2576 4.77539 11.6505 4.62142C11.7362 4.58812 11.8177 4.4279 11.8198 4.32386C11.8365 3.80783 11.8281 3.28972 11.8281 2.77161C11.8281 2.45325 11.8448 2.13281 11.8114 1.81861C11.7738 1.43991 11.4728 1.19854 11.1009 1.19854C10.7268 1.19854 10.4196 1.42534 10.4133 1.77907C10.3966 2.85067 10.4091 3.92227 10.4091 5.04173Z"
      fill="currentColor"
    />
    <path
      d="M12.6329 27.0001C12.543 27.0938 12.4114 27.3414 12.2129 27.4184C11.4835 27.7014 10.7374 27.9427 9.98929 28.1716C9.63611 28.2798 9.31637 28.0925 9.22442 27.7804C9.13456 27.4787 9.27876 27.1728 9.61522 27.0542C10.3655 26.7879 11.1178 26.5299 11.8785 26.2947C12.2546 26.1803 12.6183 26.4758 12.6329 27.0001Z"
      fill="currentColor"
    />
    <path
      d="M29.4618 28.3694C28.5423 28.3694 27.6207 28.3735 26.7012 28.3673C25.8966 28.3631 25.533 27.9969 25.5288 27.1958C25.5267 26.7713 25.5205 26.3469 25.533 25.9224C25.5518 25.3481 25.9405 24.9298 26.5152 24.9257C28.488 24.9111 30.4629 24.9132 32.4356 24.9257C32.979 24.9298 33.3761 25.2981 33.4158 25.8391C33.4555 26.3677 33.4555 26.9024 33.4199 27.4289C33.3802 28.0156 32.9873 28.3548 32.3813 28.3631C31.4075 28.3777 30.4357 28.3673 29.4618 28.3694C29.4618 28.3673 29.4618 28.3694 29.4618 28.3694ZM32.2204 26.1388C30.373 26.1388 28.5653 26.1388 26.7555 26.1388C26.7555 26.4904 26.7555 26.815 26.7555 27.1417C28.5883 27.1417 30.396 27.1417 32.2204 27.1417C32.2204 26.7984 32.2204 26.4842 32.2204 26.1388Z"
      fill="currentColor"
    />
    <path
      d="M29.4621 20.3708C30.3963 20.3708 31.3283 20.3667 32.2625 20.3708C33.0315 20.375 33.4223 20.7537 33.4391 21.5152C33.4474 21.9272 33.4537 22.3392 33.437 22.7491C33.4098 23.4275 33.0315 23.8145 32.3544 23.8187C30.4339 23.8291 28.5134 23.8291 26.5949 23.8187C25.9157 23.8145 25.5417 23.4171 25.5291 22.7429C25.5228 22.3184 25.5228 21.8939 25.5291 21.4674C25.5396 20.7766 25.9324 20.3771 26.6221 20.3708C27.5688 20.3646 28.5155 20.3708 29.4621 20.3708ZM26.7454 22.6014C28.5928 22.6014 30.3963 22.6014 32.2144 22.6014C32.2144 22.2477 32.2144 21.9252 32.2144 21.5985C30.3733 21.5985 28.5593 21.5985 26.7454 21.5985C26.7454 21.9418 26.7454 22.2581 26.7454 22.6014Z"
      fill="currentColor"
    />
    <path
      d="M27.5103 32.9658C27.1906 32.9658 26.8708 32.9741 26.5511 32.9637C25.9534 32.945 25.55 32.5517 25.5333 31.9608C25.5208 31.4843 25.5208 31.0057 25.5333 30.5271C25.548 29.9424 25.9262 29.545 26.5072 29.5283C27.1738 29.5096 27.8405 29.5096 28.5071 29.5283C29.0756 29.5429 29.4559 29.9195 29.481 30.4834C29.5019 30.9869 29.5019 31.4926 29.481 31.9961C29.4559 32.5704 29.0547 32.947 28.4737 32.9658C28.1519 32.9741 27.83 32.9658 27.5103 32.9658ZM28.2564 31.7527C28.2564 31.3885 28.2564 31.0639 28.2564 30.7393C27.7381 30.7393 27.2512 30.7393 26.7538 30.7393C26.7538 31.0889 26.7538 31.4114 26.7538 31.7527C27.2616 31.7527 27.7485 31.7527 28.2564 31.7527Z"
      fill="currentColor"
    />
  </g>
  <defs>
    <clipPath id="clip0_172_7134">
      <rect width="41" height="39" fill="white" />
    </clipPath>
  </defs>
</svg>
