<svg
  width="26"
  height="26"
  viewBox="0 0 26 26"
  fill="none"
  xmlns="http://www.w3.org/2000/svg"
>
  <path
    d="M20.5833 2.16663H9.74997C8.55506 2.16663 7.58331 3.13838 7.58331 4.33329V10.3848L2.48406 15.484C2.3326 15.6355 2.22946 15.8286 2.18767 16.0387C2.14589 16.2488 2.16735 16.4666 2.24932 16.6645C2.3313 16.8624 2.47012 17.0316 2.64823 17.1506C2.82634 17.2697 3.03574 17.3332 3.24997 17.3333V22.75C3.24997 23.0373 3.36411 23.3128 3.56727 23.516C3.77044 23.7192 4.04599 23.8333 4.33331 23.8333H21.6666C21.954 23.8333 22.2295 23.7192 22.4327 23.516C22.6358 23.3128 22.75 23.0373 22.75 22.75V4.33329C22.75 3.13838 21.7782 2.16663 20.5833 2.16663ZM11.9166 21.6666H5.41664V15.6151L8.66664 12.3651L11.9166 15.6151V21.6666ZM20.5833 21.6666H14.0833V17.3333C14.2978 17.3338 14.5075 17.2705 14.686 17.1516C14.8644 17.0326 15.0035 16.8633 15.0856 16.6652C15.1676 16.467 15.189 16.249 15.1469 16.0387C15.1048 15.8284 15.0012 15.6353 14.8492 15.484L9.74997 10.3848V4.33329H20.5833V21.6666Z"
    fill="currentColor"
  />
  <path
    d="M11.9166 6.5H14.0833V8.66667H11.9166V6.5ZM16.25 6.5H18.4166V8.66667H16.25V6.5ZM16.25 10.8669H18.4166V13H16.25V10.8669ZM16.25 15.1667H18.4166V17.3333H16.25V15.1667ZM7.58331 16.25H9.74998V18.4167H7.58331V16.25Z"
    fill="currentColor"
  />
</svg>
