<svg width="111" height="106" viewBox="0 0 111 106" fill="none" xmlns="http://www.w3.org/2000/svg">
<g clip-path="url(#clip0_224_2715)">
<path d="M-3.69782e-05 91.9858C0.181012 91.2902 0.33943 90.5889 0.54311 89.899C2.09334 84.5546 6.82325 80.7202 12.3905 80.2791C12.5659 80.2677 12.7356 80.2395 13.0468 80.2055C13.0468 79.7135 13.0468 79.2554 13.0468 78.7973C13.0468 60.7395 13.0468 42.6873 13.0468 24.6295C13.0468 20.4558 14.648 18.2614 18.6367 16.9324C20.7188 16.2368 22.7952 15.5242 24.9112 14.806C24.9112 11.5428 24.8999 8.33048 24.9168 5.11819C24.9281 2.65807 26.5293 0.616456 28.7754 0.135743C31.2988 -0.40718 33.7599 0.689976 34.7444 2.94084C35.0952 3.73826 35.214 4.67707 35.2479 5.56497C35.3215 7.43127 35.2706 9.30322 35.2706 11.3222C37.5337 10.57 39.6497 9.88007 41.76 9.16749C48.5267 6.88834 55.2935 4.62051 62.0488 2.30743C63.0729 1.9568 63.831 2.13212 64.5948 2.86732C69.4662 7.60093 74.3489 12.3119 79.2372 17.0286C80.7704 18.5103 81.5456 20.2861 81.5399 22.4352C81.5173 28.8258 81.5229 35.2165 81.5399 41.6071C81.5399 42.5233 81.3419 43.2755 80.4083 43.6035C79.3617 43.9711 78.3376 43.1907 78.2923 41.9521C78.2414 40.5439 78.2754 39.1357 78.2754 37.7275C78.2754 32.7055 78.2527 27.6891 78.2923 22.667C78.3037 21.2645 77.8397 20.1673 76.8326 19.2059C72.8665 15.4111 68.9287 11.5937 64.8381 7.64052C64.8381 21.1966 64.8381 34.5831 64.8381 48.1052C65.3021 48.1052 65.7603 48.1052 66.2186 48.1052C74.9259 48.1052 83.6333 48.1052 92.3349 48.1052C96.3746 48.1052 98.3831 50.1186 98.3831 54.1679C98.3831 62.4022 98.3831 70.6365 98.3831 78.8652C98.3831 79.2894 98.3831 79.7135 98.3831 80.1264C99.8089 80.2395 101.15 80.2225 102.44 80.4657C107.288 81.3932 110.859 85.6404 110.949 90.5833C111.017 94.3385 110.989 98.0937 110.96 101.849C110.943 104.055 109.427 105.672 107.243 105.904C106.779 105.955 106.304 105.949 105.834 105.949C72.2725 105.949 38.7162 105.938 5.1542 105.977C2.65912 105.983 0.888235 105.191 -0.0113525 102.793C-3.69782e-05 99.2078 -3.69782e-05 95.594 -3.69782e-05 91.9858ZM61.4717 41.6637C60.9173 41.839 60.5722 41.9408 60.2327 42.0539C49.4659 45.6734 38.7048 49.2929 27.9381 52.9067C27.5307 53.0424 27.112 53.1895 26.6877 53.2347C25.8673 53.3252 25.262 52.9406 25.0074 52.1715C24.7358 51.3515 25.0243 50.6728 25.7768 50.2373C26.054 50.079 26.3822 50.0055 26.6877 49.898C37.1829 46.3747 47.6724 42.8513 58.1619 39.3167C59.2539 38.9491 60.7362 38.819 61.285 38.0498C61.8395 37.2751 61.4661 35.8273 61.4717 34.6792C61.4831 33.1466 61.4774 31.614 61.4774 29.9739C60.9569 30.1322 60.6174 30.2284 60.2836 30.3415C49.4829 33.9723 38.6822 37.6031 27.8872 41.2282C27.4798 41.3639 27.0555 41.5053 26.6368 41.5449C25.8108 41.6184 25.228 41.1999 24.996 40.4251C24.7641 39.6503 25.03 38.9943 25.7429 38.5758C26.0201 38.4118 26.3426 38.327 26.6481 38.2252C37.7883 34.4756 48.9228 30.7147 60.0799 27.0217C61.2172 26.6428 61.5736 26.1395 61.5114 24.9858C61.4095 23.0799 61.4887 21.157 61.4774 19.2455C61.4774 18.9458 61.4208 18.646 61.3925 18.318C61.1606 18.3802 61.0587 18.4028 60.9569 18.4368C49.9808 22.1128 39.0047 25.8002 28.0343 29.4762C27.559 29.6345 27.0046 29.9399 26.5915 29.8155C26.0088 29.6459 25.3298 29.25 25.0413 28.7523C24.6509 28.0736 24.9904 27.3384 25.6919 26.9086C25.9918 26.722 26.3539 26.6259 26.6934 26.5127C37.2565 22.9668 47.8195 19.4208 58.3769 15.8692C59.3671 15.5355 60.7249 15.4337 61.2171 14.7324C61.7377 13.9972 61.4548 12.6739 61.4661 11.605C61.4887 9.77828 61.4717 7.95157 61.4717 6.01175C60.9343 6.17576 60.5608 6.2719 60.1931 6.39632C46.5918 10.9603 32.9905 15.5242 19.3892 20.0938C17.0921 20.8686 16.2944 21.9827 16.2944 24.4315C16.2944 50.1412 16.2944 75.8508 16.2944 101.561C16.2944 101.911 16.3283 102.256 16.351 102.652C19.2308 102.652 22.0257 102.652 24.9112 102.652C24.9112 102.188 24.9112 101.798 24.9112 101.408C24.9112 97.941 24.9055 94.4742 24.9112 91.0074C24.9168 88.5304 25.9126 87.2239 28.3228 86.5509C33.0471 85.2276 37.7656 83.9099 42.4899 82.5978C45.4093 81.7834 47.4235 83.316 47.4291 86.3587C47.4405 91.375 47.4291 96.3971 47.4291 101.413C47.4291 101.804 47.4291 102.2 47.4291 102.624C52.1477 102.624 56.7758 102.624 61.3982 102.624C61.3982 90.0799 61.3982 77.638 61.3982 65.1055C61.0474 65.2016 60.7758 65.2639 60.5099 65.3543C55.9271 66.887 51.35 68.4309 46.7728 69.9635C44.6172 70.6874 42.4729 71.4226 40.306 72.1069C39.4007 72.3897 38.6087 71.9373 38.3201 71.1003C38.0316 70.2633 38.405 69.4545 39.2763 69.07C39.5082 68.9682 39.7515 68.9003 39.9892 68.8211C46.3768 66.6721 52.7701 64.523 59.1577 62.3683C61.4661 61.5935 61.4661 61.5878 61.4661 59.1729C61.4661 57.2784 61.4661 55.3838 61.4661 53.3761C60.9512 53.5345 60.6174 53.6306 60.2836 53.7437C52.1138 56.4809 43.9439 59.2238 35.7741 61.9611C32.9735 62.8999 30.1842 63.8952 27.3553 64.7492C26.7726 64.9245 25.9239 64.7492 25.3977 64.4155C25.0639 64.2063 24.8489 63.2731 25.0413 62.8999C25.3129 62.3683 25.9465 61.8762 26.5293 61.6783C32.7698 59.5349 39.0273 57.4537 45.2792 55.3499C50.3712 53.6363 55.4632 51.9283 60.5439 50.1864C60.889 50.0677 61.4152 49.7227 61.4208 49.4682C61.5 46.9176 61.4717 44.3613 61.4717 41.6637ZM88.697 92.5627C88.697 91.8784 88.6687 91.3015 88.7027 90.7247C88.912 86.6641 90.7281 83.5592 94.2925 81.5628C94.9658 81.1839 95.1582 80.7824 95.1582 80.0585C95.1356 71.3944 95.1469 62.7302 95.1412 54.0661C95.1412 51.9849 94.5189 51.3684 92.4198 51.3684C83.6107 51.3628 74.7958 51.3684 65.9867 51.3684C65.6019 51.3684 65.2172 51.4024 64.8042 51.4193C64.8042 65.1847 64.8042 78.8426 64.8042 92.557C72.7647 92.5627 80.6573 92.5627 88.697 92.5627ZM64.7929 102.646C72.776 102.646 80.6856 102.646 88.6065 102.646C88.6065 100.356 88.6065 98.1446 88.6065 95.9503C80.612 95.9503 72.6968 95.9503 64.7929 95.9503C64.7929 98.2238 64.7929 100.412 64.7929 102.646ZM92.0011 92.5344C97.3138 92.5344 102.491 92.5344 107.679 92.5344C108.001 89.0959 107.068 86.2229 104.013 84.5206C101.088 82.8919 98.021 82.9597 95.1978 84.8487C92.4877 86.6584 91.7013 89.3674 92.0011 92.5344ZM91.9955 102.72C93.0082 102.72 93.9078 102.72 94.8017 102.72C98.6264 102.72 102.451 102.72 106.276 102.72C106.892 102.72 107.662 102.771 107.696 101.934C107.769 99.9317 107.718 97.924 107.718 95.9333C102.4 95.9333 97.2233 95.9333 91.9955 95.9333C91.9955 98.1899 91.9955 100.373 91.9955 102.72ZM44.0854 102.646C44.0854 96.9343 44.0854 91.3015 44.0854 85.5217C41.9185 86.1211 39.8817 86.6867 37.8675 87.2466C37.8675 92.427 37.8675 97.5282 37.8675 102.646C40.0061 102.646 42.0486 102.646 44.0854 102.646ZM34.4615 88.2023C32.5096 88.7509 30.6312 89.2316 28.7981 89.8424C28.4925 89.9442 28.1983 90.6116 28.1927 91.0244C28.1474 94.6609 28.1644 98.2973 28.1701 101.939C28.1701 102.177 28.221 102.409 28.2436 102.646C30.3596 102.646 32.3964 102.646 34.4558 102.646C34.4615 97.8223 34.4615 93.0773 34.4615 88.2023ZM3.25319 95.9107C3.25319 97.4094 3.25319 98.812 3.25319 100.215C3.24753 102.748 2.99859 102.742 5.80485 102.726C8.18111 102.709 10.5574 102.72 12.9733 102.72C12.9733 100.379 12.9733 98.1672 12.9733 95.9051C9.737 95.9107 6.56865 95.9107 3.25319 95.9107ZM13.0468 92.5797C13.0468 91.0188 13.0468 89.5483 13.0468 88.0779C13.0468 86.5736 13.0468 85.0692 13.0468 83.5762C8.24901 83.4178 3.19661 88.2193 3.47384 92.574C6.59694 92.5797 9.72569 92.5797 13.0468 92.5797ZM28.1814 13.7032C29.3808 13.3073 30.4784 12.9793 31.5421 12.5608C31.7741 12.4703 31.9947 12.0348 32.0004 11.752C32.0456 10.3495 32.023 8.94127 32.023 7.53307C32.023 6.66778 32.0683 5.79684 31.9777 4.94287C31.8759 3.91358 31.0612 3.25755 30.0541 3.25755C29.0414 3.25755 28.2097 3.87399 28.1927 4.83542C28.1474 7.74797 28.1814 10.6605 28.1814 13.7032Z" fill="#E30319"/>
<path d="M34.2013 73.3851C33.958 73.6396 33.6016 74.3126 33.0641 74.5219C31.0895 75.291 29.0697 75.947 27.0442 76.5691C26.088 76.8632 25.2224 76.3542 24.9735 75.5059C24.7302 74.6859 25.1206 73.8545 26.0315 73.5321C28.0626 72.8082 30.0994 72.107 32.1588 71.4679C33.1772 71.1569 34.1617 71.9599 34.2013 73.3851Z" fill="#E30319"/>
<path d="M79.7634 77.1063C77.274 77.1063 74.7789 77.1177 72.2895 77.1007C70.1112 77.0894 69.1268 76.094 69.1155 73.9167C69.1098 72.763 69.0928 71.6093 69.1268 70.4556C69.1777 68.8947 70.23 67.7579 71.7859 67.7466C77.1269 67.707 82.4735 67.7127 87.8144 67.7466C89.2855 67.7579 90.3604 68.7589 90.4679 70.2293C90.5754 71.6658 90.5754 73.1193 90.4792 74.5501C90.3717 76.1449 89.3081 77.0668 87.6673 77.0894C85.0308 77.129 82.3999 77.1007 79.7634 77.1063C79.7634 77.1007 79.7634 77.1063 79.7634 77.1063ZM87.2317 71.0437C82.2302 71.0437 77.3362 71.0437 72.4366 71.0437C72.4366 71.9995 72.4366 72.8817 72.4366 73.7696C77.3985 73.7696 82.2924 73.7696 87.2317 73.7696C87.2317 72.8365 87.2317 71.9825 87.2317 71.0437Z" fill="#E30319"/>
<path d="M79.7633 55.3668C82.2924 55.3668 84.8157 55.3555 87.3448 55.3668C89.4268 55.3781 90.4848 56.4074 90.5301 58.4773C90.5527 59.5971 90.5697 60.7168 90.5244 61.831C90.4509 63.6746 89.4268 64.7266 87.5937 64.7379C82.3942 64.7661 77.1947 64.7661 72.0009 64.7379C70.1621 64.7266 69.1493 63.6464 69.1154 61.814C69.0984 60.6603 69.0984 59.5066 69.1154 58.3472C69.1437 56.4696 70.2073 55.3838 72.0744 55.3668C74.6374 55.3498 77.2004 55.3668 79.7633 55.3668ZM72.4082 61.4294C77.4097 61.4294 82.2924 61.4294 87.2146 61.4294C87.2146 60.468 87.2146 59.5914 87.2146 58.7035C82.2301 58.7035 77.3192 58.7035 72.4082 58.7035C72.4082 59.6367 72.4082 60.4963 72.4082 61.4294Z" fill="#E30319"/>
<path d="M74.479 89.5992C73.6134 89.5992 72.7478 89.6219 71.8821 89.5936C70.264 89.5427 69.172 88.4738 69.1268 86.8677C69.0928 85.5726 69.0928 84.2718 69.1268 82.9711C69.1664 81.3819 70.1904 80.3017 71.7633 80.2564C73.5681 80.2055 75.373 80.2055 77.1778 80.2564C78.7167 80.296 79.7464 81.3197 79.8143 82.8523C79.8709 84.2209 79.8709 85.5952 79.8143 86.9638C79.7464 88.5247 78.6601 89.5483 77.0873 89.5992C76.216 89.6219 75.3447 89.5992 74.479 89.5992ZM76.4989 86.3021C76.4989 85.3124 76.4989 84.4302 76.4989 83.5479C75.0957 83.5479 73.7775 83.5479 72.4309 83.5479C72.4309 84.498 72.4309 85.3746 72.4309 86.3021C73.8058 86.3021 75.124 86.3021 76.4989 86.3021Z" fill="#E30319"/>
</g>
<defs>
<clipPath id="clip0_224_2715">
<rect width="111" height="106" fill="white"/>
</clipPath>
</defs>
</svg>
