<svg width="40" height="40" viewBox="0 0 40 40" fill="none" xmlns="http://www.w3.org/2000/svg">
<g clip-path="url(#clip0_259_13229)">
<path d="M34.1333 5.85327C32.2777 3.99366 30.0731 2.51897 27.6459 1.5139C25.2188 0.50883 22.617 -0.00680857 19.99 -0.00340119C8.94328 -0.00340119 -0.0117188 8.9516 -0.0117188 19.9983C-0.0117188 25.5216 2.22828 30.5233 5.84828 34.1433C7.70383 36.0029 9.9085 37.4776 12.3356 38.4826C14.7628 39.4877 17.3646 40.0033 19.9916 39.9999C31.0383 39.9999 39.9933 31.0449 39.9933 19.9983C39.9933 14.4749 37.7533 9.47327 34.1333 5.85327ZM31.5633 31.5649C30.0453 33.0868 28.2416 34.2937 26.2558 35.1163C24.2699 35.9389 22.1411 36.361 19.9916 36.3583C10.9533 36.3583 3.62661 29.0316 3.62661 19.9933C3.62392 17.8438 4.046 15.715 4.8686 13.7291C5.69119 11.7433 6.89809 9.93956 8.41995 8.4216C9.93754 6.89972 11.741 5.69279 13.7265 4.87018C15.7121 4.04758 17.8407 3.62552 19.99 3.62827C29.0266 3.62827 36.3533 10.9549 36.3533 19.9916C36.3561 22.1408 35.9341 24.2695 35.1115 26.2551C34.2889 28.2406 33.0819 30.0441 31.5599 31.5616L31.5633 31.5649Z" fill="#BDBDBD"/>
<path d="M22.5616 20.0001L28.9866 13.5751C29.3035 13.2296 29.4748 12.7751 29.4646 12.3064C29.4545 11.8377 29.2637 11.391 28.9321 11.0596C28.6004 10.7282 28.1537 10.5377 27.685 10.5279C27.2162 10.518 26.7618 10.6896 26.4166 11.0067L26.4183 11.0051L19.9933 17.4301L13.5683 11.0051C13.2228 10.6881 12.7683 10.5169 12.2996 10.527C11.8309 10.5372 11.3842 10.728 11.0528 11.0596C10.7214 11.3912 10.5309 11.838 10.5211 12.3067C10.5112 12.7754 10.6828 13.2298 10.9999 13.5751L10.9983 13.5734L17.4233 19.9984L10.9983 26.4234C10.8175 26.5893 10.6721 26.79 10.571 27.0135C10.4698 27.2369 10.4149 27.4786 10.4096 27.7239C10.4043 27.9691 10.4487 28.2129 10.54 28.4406C10.6314 28.6683 10.7679 28.8751 10.9413 29.0486C11.1148 29.2221 11.3215 29.3588 11.5491 29.4503C11.7767 29.5418 12.0205 29.5864 12.2657 29.5812C12.511 29.5761 12.7527 29.5213 12.9763 29.4203C13.1998 29.3193 13.4006 29.1741 13.5666 28.9934L13.5683 28.9917L19.9933 22.5667L26.4183 28.9917C26.5841 29.1725 26.7848 29.3179 27.0083 29.419C27.2318 29.5202 27.4735 29.5751 27.7187 29.5804C27.964 29.5857 28.2078 29.5413 28.4355 29.45C28.6631 29.3586 28.87 29.2221 29.0435 29.0487C29.217 28.8752 29.3536 28.6685 29.4452 28.4409C29.5367 28.2133 29.5812 27.9695 29.5761 27.7242C29.5709 27.479 29.5162 27.2373 29.4152 27.0137C29.3141 26.7902 29.1689 26.5894 28.9883 26.4234L28.9866 26.4217L22.5616 20.0001Z" fill="#BDBDBD"/>
</g>
<defs>
<clipPath id="clip0_259_13229">
<rect width="40" height="40" fill="white"/>
</clipPath>
</defs>
</svg>
