<svg width="117" height="124" viewBox="0 0 117 124" fill="none" xmlns="http://www.w3.org/2000/svg">
<path d="M29.38 123.01C28.22 122.44 26.94 122.02 25.91 121.27C24.23 120.04 23.32 118.22 23.31 116.13C23.26 109.54 23.16 102.95 23.37 96.36C23.57 90.09 27.06 85.83 32.47 82.98C36.07 81.08 40.02 80.4 43.96 79.64C48.44 78.78 52.91 77.87 57.39 77.05C58.18 76.9 58.36 76.61 58.44 75.84C58.67 73.61 58.11 72.02 56.17 70.52C52.66 67.8 50.82 63.9 50.13 59.52C50.01 58.78 49.76 58.47 49.03 58.27C46.79 57.66 45.44 55.94 45.26 53.61C45.23 53.18 45.21 52.73 45.24 52.3C45.35 50.81 45.11 49.68 43.76 48.55C41.25 46.47 42.05 42.31 44.99 40.86C45.31 40.7 45.64 40.58 45.74 40.54C46.16 37.83 46.32 35.19 47 32.7C49.7 22.9 58.57 16.22 68.71 15.97C74 15.85 79 16.65 83.48 19.62C90.24 24.1 93.75 30.45 94.15 38.53C94.18 39.16 94.15 39.79 94.15 40.43C96.24 41.13 97.56 42.43 97.82 44.59C98.06 46.58 97.32 48.13 95.69 49.32C95.33 49.59 95.08 50.14 94.98 50.61C94.86 51.14 94.95 51.72 94.95 52.27C94.95 56.04 93.88 57.49 90.25 58.58C89.89 61.41 89.17 64.22 87.43 66.53C85.97 68.48 84.11 70.12 82.46 71.93C82.15 72.27 81.86 72.75 81.83 73.18C81.74 74.36 81.8 75.55 81.8 76.84C84.61 77.39 87.37 77.89 90.12 78.47C94.89 79.48 99.69 80.36 104.39 81.63C108.07 82.63 111.26 84.69 113.68 87.76C115.63 90.23 116.78 93.06 116.82 96.2C116.92 102.79 116.92 109.38 116.86 115.97C116.83 119.27 114.7 121.84 111.52 122.76C111.3 122.82 111.08 122.93 110.87 123.01C83.71 123.01 56.54 123.01 29.38 123.01ZM105.61 85.98C105.49 86.3 105.43 86.44 105.39 86.59C103.45 92.67 102.44 98.92 102.13 105.29C102.06 106.71 101.35 107.39 100.18 107.29C99.07 107.19 98.51 106.43 98.58 105.07C98.83 99.9 99.51 94.8 100.81 89.79C101.25 88.08 101.72 86.37 102.19 84.63C101.87 84.52 101.65 84.42 101.43 84.37C97.47 83.58 93.5 82.77 89.53 82.04C89.18 81.98 88.59 82.35 88.35 82.68C83.65 89.41 78.91 96.13 74.35 102.96C73.28 104.56 72.35 106.52 72.16 108.39C71.78 111.96 71.98 115.6 71.95 119.2C71.95 119.26 72.05 119.31 72.07 119.34C80.9 119.34 89.69 119.34 98.52 119.34C98.52 117.22 98.51 115.2 98.52 113.18C98.53 111.69 99.19 110.89 100.36 110.92C101.48 110.95 102.08 111.71 102.09 113.15C102.1 115.2 102.09 117.26 102.09 119.39C104.89 119.39 107.59 119.5 110.27 119.35C112 119.25 113.31 117.69 113.32 115.92C113.34 109.25 113.48 102.57 113.22 95.91C113.01 91.06 109.93 88.05 105.61 85.98ZM37.83 84.55C41.99 96 41.86 107.68 41.66 119.34C50.65 119.34 59.44 119.34 68.29 119.34C68.29 116.43 68.26 113.61 68.3 110.8C68.34 107.8 67.45 105.12 65.74 102.66C61.11 96.02 56.5 89.36 51.93 82.69C51.45 82 50.99 81.9 50.26 82.05C47.74 82.57 45.2 83.04 42.68 83.55C41.13 83.86 39.59 84.19 37.83 84.55ZM48.79 50.13C48.79 50.95 48.79 51.73 48.79 52.52C48.8 54.56 49.09 54.86 51.12 54.91C52.75 54.95 53.36 55.51 53.42 57.12C53.89 68 64.74 73.93 73.26 72.15C81.26 70.47 86.16 64.91 86.8 56.82C86.9 55.57 87.5 54.98 88.77 54.91C89.21 54.89 89.7 55 90.06 54.83C90.54 54.59 91.22 54.17 91.28 53.76C91.44 52.58 91.34 51.35 91.34 50.13C77.1 50.13 63.02 50.13 48.79 50.13ZM68.29 19.5C66.99 19.71 65.88 19.92 64.75 20.05C63.62 20.18 63.04 20.63 63.22 21.87C63.33 22.61 63.26 23.38 63.23 24.13C63.19 25.28 62.53 25.98 61.51 26C60.49 26.02 59.76 25.34 59.68 24.22C59.63 23.56 59.67 22.9 59.67 22.18C53.58 25.01 48.91 33.06 49.75 40.24C63.33 40.24 76.92 40.24 90.49 40.24C91.15 31.8 85.68 24.51 80.5 22.19C80.5 22.92 80.54 23.58 80.49 24.24C80.4 25.37 79.67 26.04 78.65 26C77.67 25.96 77.01 25.31 76.96 24.22C76.91 23.23 76.98 22.23 76.91 21.25C76.89 20.93 76.65 20.41 76.42 20.35C74.97 20 73.5 19.75 71.86 19.43C71.86 20.1 71.86 20.53 71.86 20.96C71.85 23.46 71.86 25.96 71.84 28.46C71.83 29.32 71.41 29.9 70.55 30.08C69.7 30.26 68.92 30.08 68.53 29.24C68.32 28.79 68.3 28.24 68.29 27.73C68.28 25.08 68.29 22.43 68.29 19.5ZM38.06 119.43C38.31 108.06 38.39 96.86 34.54 85.99C30.18 88.11 27.12 91.2 26.97 96.18C26.77 102.72 26.83 109.28 26.86 115.83C26.87 117.84 28.4 119.36 30.31 119.42C32.85 119.49 35.4 119.43 38.06 119.43ZM61.98 74.37C61.98 75.36 62.05 76.16 61.97 76.94C61.71 79.22 62.7 80.93 64.33 82.36C64.78 82.75 65.21 83.16 65.71 83.49C70.88 86.95 69.31 86.95 74.59 83.44C77.86 81.27 78.88 78.24 78.07 74.43C72.79 76.56 67.46 76.58 61.98 74.37ZM70.11 46.51C77.45 46.51 84.79 46.51 92.13 46.51C92.49 46.51 92.94 46.63 93.18 46.47C93.62 46.17 94.24 45.67 94.22 45.29C94.19 44.82 93.63 44.33 93.2 43.96C93.01 43.8 92.59 43.91 92.27 43.91C77.47 43.91 62.68 43.91 47.88 43.91C47.64 43.91 47.4 43.9 47.17 43.92C46.37 43.98 45.89 44.43 45.89 45.21C45.89 45.98 46.34 46.46 47.15 46.51C47.47 46.53 47.78 46.52 48.1 46.52C55.44 46.51 62.78 46.51 70.11 46.51ZM64.01 93.92C66.01 96.82 68.05 99.77 70.1 102.74C72.17 99.74 74.21 96.79 76.2 93.9C74.74 93.06 73.26 92.35 71.95 91.41C70.66 90.48 69.61 90.38 68.29 91.37C67 92.33 65.52 93.03 64.01 93.92ZM55.17 81.18C57.1 83.94 58.93 86.65 60.87 89.29C61.59 90.26 62.91 90.43 63.88 89.89C64.7 89.42 65.49 88.9 66.37 88.34C63.16 86.27 60.17 84.08 58.68 80.46C57.83 80.61 57.1 80.74 56.36 80.88C56.01 80.94 55.67 81.05 55.17 81.18ZM73.78 88.37C74.52 88.81 75.09 89.16 75.66 89.5C77.5 90.6 78.64 90.37 79.88 88.59C81.4 86.41 82.9 84.22 84.4 82.04C84.59 81.77 84.74 81.48 84.97 81.09C83.7 80.86 82.59 80.66 81.49 80.46C79.96 84.14 77.01 86.27 73.78 88.37Z" fill="#E30319"/>
<path d="M60.21 11.75C59.25 12.79 58.4 13.78 57.48 14.71C55.89 16.31 54.21 16.49 52.16 15.54C50.22 14.64 48.25 13.82 46.24 13.08C44.01 12.26 43 10.95 42.98 8.52999C42.97 7.49999 43.04 6.45999 42.94 5.43999C42.91 5.12999 42.43 4.63999 42.14 4.62999C40.04 4.55999 37.93 4.60999 35.83 4.57999C35.06 4.56999 34.88 4.93999 34.89 5.59999C34.91 6.74999 34.92 7.89999 34.88 9.04999C34.83 10.92 33.81 12.23 32.07 12.93C29.86 13.8 27.67 14.7 25.49 15.66C23.69 16.45 22.01 16.22 20.56 14.84C19.61 13.93 18.69 13.01 17.75 12.1C17.7 12.05 17.61 12.05 17.3 11.79C15.47 13.63 13.64 15.47 11.59 17.53C12.76 18.62 13.74 19.48 14.66 20.4C16.32 22.06 16.5 23.7 15.52 25.81C14.62 27.74 13.8 29.72 13.06 31.72C12.26 33.87 11 34.86 8.70998 34.89C7.63998 34.9 6.56998 34.91 5.48998 34.89C4.83998 34.88 4.56998 35.14 4.56998 35.81C4.59998 37.87 4.59998 39.94 4.56998 42C4.55998 42.72 4.80998 43.01 5.52998 42.98C6.63998 42.94 7.74998 42.95 8.86998 42.98C10.92 43.03 12.24 44.08 12.98 46C13.8 48.14 14.69 50.26 15.62 52.36C16.45 54.23 16.25 55.91 14.79 57.38C13.84 58.34 12.82 59.22 11.7 60.26C12.45 61.02 13.01 61.61 13.59 62.19C14.65 63.26 15.74 64.31 16.78 65.4C17.31 65.96 17.72 65.97 18.25 65.39C18.97 64.6 19.75 63.86 20.52 63.11C22.06 61.62 23.69 61.43 25.64 62.31C27.69 63.24 29.78 64.09 31.89 64.9C33.82 65.64 34.84 66.95 34.88 69.02C34.9 70.09 34.91 71.17 34.88 72.24C34.86 72.98 35.1 73.34 35.9 73.33C37.92 73.3 39.95 73.3 41.98 73.33C42.76 73.34 43.03 73.04 43 72.27C42.95 71.16 42.96 70.05 43 68.94C43.07 67.03 44.21 65.48 45.88 64.98C46.84 64.69 47.62 64.92 48.09 65.85C48.53 66.72 48.26 67.74 47.35 68.18C46.69 68.5 46.53 68.92 46.55 69.59C46.58 70.74 46.59 71.89 46.54 73.04C46.46 75.07 44.98 76.73 42.96 76.82C40.31 76.93 37.64 76.93 34.98 76.82C32.88 76.73 31.41 75.04 31.32 72.84C31.27 71.69 31.28 70.54 31.32 69.39C31.34 68.72 31.08 68.44 30.46 68.19C28.36 67.37 26.3 66.44 24.2 65.64C23.83 65.5 23.19 65.59 22.9 65.83C22.02 66.56 21.26 67.44 20.43 68.24C18.69 69.9 16.39 69.94 14.66 68.29C12.94 66.64 11.25 64.96 9.60998 63.23C7.95998 61.5 8.00998 59.21 9.66998 57.47C10.44 56.67 11.22 55.87 12.03 55.11C12.51 54.66 12.57 54.27 12.3 53.65C11.38 51.59 10.58 49.48 9.64998 47.43C9.46998 47.04 8.91998 46.62 8.49998 46.58C7.31998 46.46 6.11998 46.56 4.92998 46.53C2.76998 46.46 1.07998 44.82 1.02998 42.66C0.969982 40.2 0.979982 37.74 1.02998 35.27C1.07998 33.02 2.78998 31.38 5.10998 31.31C6.25998 31.27 7.41998 31.37 8.55998 31.26C8.94998 31.22 9.46998 30.84 9.62998 30.48C10.57 28.39 11.45 26.27 12.28 24.13C12.41 23.79 12.33 23.18 12.09 22.91C11.35 22.03 10.47 21.28 9.67998 20.44C7.93998 18.6 7.95998 16.32 9.73998 14.51C11.33 12.89 12.92 11.29 14.54 9.70999C16.35 7.93999 18.63 7.93999 20.48 9.68999C21.26 10.43 22.02 11.18 22.75 11.97C23.22 12.48 23.63 12.56 24.3 12.25C26.28 11.35 28.29 10.52 30.33 9.74999C31.03 9.47999 31.37 9.18999 31.33 8.39999C31.27 7.32999 31.29 6.25998 31.32 5.17999C31.39 2.67999 33.06 1.01999 35.55 0.999985C37.81 0.979985 40.08 0.979985 42.34 0.999985C44.86 1.01999 46.5 2.66999 46.54 5.17999C46.56 6.16998 46.6 7.16998 46.53 8.15999C46.47 9.05999 46.79 9.46999 47.66 9.78999C49.63 10.5 51.56 11.32 53.47 12.19C54.2 12.53 54.68 12.52 55.23 11.91C56 11.05 56.82 10.24 57.67 9.46999C59.63 7.69999 62.72 8.19999 64.05 10.48C64.52 11.29 64.35 12.03 63.72 12.64C63.08 13.26 62.32 13.38 61.55 12.86C61.18 12.61 60.84 12.28 60.21 11.75Z" fill="#E30319"/>
<path d="M39.08 21.91C40.82 22.26 42.58 22.54 44.29 22.99C45.84 23.4 46.38 24.32 45.97 25.47C45.58 26.57 44.7 26.87 43.21 26.39C36.55 24.25 29.51 27.37 26.77 33.68C23 42.35 29.41 52.17 38.88 52.23C38.96 52.23 39.04 52.23 39.12 52.23C40.89 52.23 41.62 52.75 41.6 54.03C41.58 55.23 40.82 55.79 39.16 55.81C29.8 55.92 22.11 48.31 22.14 38.96C22.16 29.61 29.78 22.01 39.08 21.91Z" fill="#E30319"/>
</svg>
