<svg width="41" height="57" viewBox="0 0 57 57" fill="none" xmlns="http://www.w3.org/2000/svg">
<g clip-path="url(#clip0_259_10240)">
<path d="M8.33756 57.0002C6.6747 56.5564 5.83156 55.4259 5.50836 53.7863C5.2882 52.6651 4.93221 51.5674 4.63243 50.4416C4.44975 50.4182 4.29049 50.3995 4.12655 50.3809C3.24593 50.2921 2.69789 49.7923 2.46369 48.9654C2.02806 47.4145 1.59713 45.859 1.19429 44.2987C0.931984 43.2757 1.27392 42.617 2.22948 42.1219C2.36064 42.0518 2.43558 41.879 2.56674 41.7949C2.82905 41.6174 3.12883 41.3137 3.36772 41.3511C3.64408 41.3931 3.91576 41.7108 4.10781 41.9724C4.25302 42.1686 4.26707 42.4582 4.35138 42.7572C5.01184 42.7572 5.67699 42.7525 6.34681 42.7572C7.45226 42.7665 8.02841 43.1823 8.36098 44.2333C8.75444 45.4666 9.14322 46.7045 9.51327 47.9471C9.92079 49.3205 9.15728 50.3528 7.71926 50.4042C7.293 50.4182 6.87143 50.4042 6.36555 50.4042C6.56228 51.1797 6.74496 51.8897 6.92764 52.5951C7.0588 53.0949 7.18058 53.6041 7.33516 54.0946C7.5881 54.9074 8.13146 55.2998 8.98396 55.3278C9.11512 55.3325 9.24627 55.3278 9.37275 55.3278C16.6659 55.3278 23.9544 55.3278 31.2475 55.3278C32.62 55.3278 33.0556 54.9962 33.4256 53.6742C33.7254 52.6044 34.0205 51.5347 34.339 50.3949C33.9034 50.3949 33.5146 50.4042 33.1305 50.3949C31.6925 50.3482 30.929 49.3158 31.3365 47.9424C31.7019 46.6998 32.086 45.4619 32.4795 44.224C32.8073 43.1823 33.4022 42.7619 34.503 42.7525C35.0604 42.7478 35.6178 42.7712 36.1752 42.7385C36.3111 42.7292 36.5218 42.5937 36.5593 42.4722C37.1729 40.3374 37.7678 38.1933 38.3627 36.0538C38.3767 36.0024 38.3627 35.9463 38.3627 35.8482C26.4276 35.8482 14.4972 35.8482 2.53395 35.8482C2.74005 36.6377 2.95552 37.4225 3.14757 38.2073C3.20378 38.4362 3.2553 38.6838 3.23188 38.9173C3.18504 39.3424 2.88057 39.5807 2.47306 39.5993C2.03275 39.6227 1.74233 39.3611 1.62523 38.936C1.33013 37.8382 1.03972 36.7265 0.744619 35.6147C0.561939 34.9326 0.421416 34.2413 0.191895 33.5779C-0.562247 31.3777 0.936668 28.9253 3.58787 28.8739C3.99539 28.8645 4.40759 28.8599 4.81511 28.8739C5.51304 28.9019 5.79409 29.1729 5.80814 29.8689C5.82688 30.5883 5.81282 31.3077 5.81282 32.1252C6.17818 31.9944 6.44518 31.8916 6.71686 31.8028C7.21806 31.6393 7.63963 31.8215 7.81762 32.27C7.98625 32.6904 7.81762 33.0828 7.34921 33.321C6.8527 33.5733 6.34681 33.8068 5.84561 34.0498C5.86435 34.1152 5.88309 34.1759 5.90182 34.2413C6.28592 34.2413 6.66533 34.2413 7.04943 34.2413C8.20172 34.2413 9.35401 34.2506 10.511 34.2319C10.7124 34.2273 10.9888 34.1712 11.0965 34.0357C11.7101 33.2696 12.2863 32.4755 12.9795 31.5412C12.1223 31.8122 11.4291 32.0504 10.7265 32.2513C10.0098 32.4568 9.47111 32.0317 9.56011 31.3684C9.62569 30.9059 9.97231 30.7424 10.3611 30.621C11.5649 30.2379 12.764 29.8455 13.9725 29.4765C14.3098 29.3737 14.3801 29.2196 14.4082 28.8599C14.5253 27.4958 14.1037 26.4448 13.1481 25.4077C11.846 23.997 11.3073 22.1658 11.2558 20.2365C11.2183 19.064 11.2417 17.8775 11.2417 16.6256C10.6983 16.6256 10.2159 16.6349 9.73811 16.6256C8.74508 16.6069 8.16425 16.023 8.13614 15.0233C8.12677 14.7103 8.13614 14.3927 8.13614 14.075C8.13614 12.5708 8.37503 12.2532 9.69595 11.9075C9.92079 10.749 10.0145 9.58582 10.3751 8.51607C11.5836 4.92379 14.0569 2.59278 17.7245 1.5464C18.0571 1.45297 18.3803 1.3829 18.4131 0.957804C18.4178 0.925104 18.4412 0.892405 18.4599 0.859705C19.0361 -0.14931 20.0197 0.00951649 20.9378 0.0188592C21.6638 0.028202 22.2072 0.341183 22.5164 1.04189C22.596 1.22407 22.8068 1.42494 22.9941 1.47633C27.711 2.67687 30.9243 6.85307 31.0367 11.389C31.0414 11.5525 31.0695 11.716 31.0836 11.8748C32.5778 12.3232 32.7558 12.5661 32.7558 14.117C32.7558 14.4674 32.7699 14.8224 32.7464 15.1728C32.6856 16.0463 32.1 16.6022 31.2288 16.6256C30.7323 16.6396 30.2311 16.6302 29.7065 16.6302C29.6175 17.3029 29.8048 18.1251 28.7977 18.1531C28.2591 18.1671 28.0858 17.8448 27.9499 16.6723C22.9613 16.6723 17.9681 16.6723 12.928 16.6723C12.8905 19.4004 12.5533 22.1658 14.4737 24.4921C16.5535 27.0147 19.2094 27.9163 22.3899 27.1688C25.2378 26.5008 27.4253 24.0437 27.8937 21.0961C27.9124 20.9699 27.9405 20.8391 27.9687 20.713C28.0951 20.1524 28.4652 19.8628 28.9429 19.9516C29.416 20.0403 29.669 20.4467 29.5987 21.012C29.3177 23.2309 28.3387 25.0947 26.732 26.6503C26.5353 26.8418 26.4042 27.1735 26.3807 27.4491C26.3292 28.033 26.3667 28.631 26.3667 29.2663C29.1069 30.1445 31.8799 31.0321 34.7138 31.9383C34.7138 31.2563 34.7091 30.6303 34.7138 30.0044C34.7231 29.1869 35.0089 28.8692 35.8192 28.8879C36.7092 28.9066 37.6273 28.8599 38.4751 29.0701C40.3862 29.5512 41.4027 31.4852 40.8687 33.3771C40.0911 36.1379 39.3182 38.9033 38.5407 41.6688C38.5126 41.7762 38.4938 41.8836 38.4657 42.0098C38.5266 42.0565 38.5828 42.1032 38.6437 42.1359C39.5806 42.617 39.9319 43.3318 39.6649 44.3361C39.262 45.859 38.8498 47.3772 38.4189 48.8907C38.1238 49.9231 37.5992 50.3388 36.489 50.3995C36.1658 50.4182 36.0394 50.5257 35.9644 50.82C35.7068 51.8056 35.3602 52.7726 35.1541 53.7676C34.8168 55.3932 33.9924 56.5424 32.3436 57.0095C24.3385 57.0002 16.338 57.0002 8.33756 57.0002ZM18.2491 3.15802C14.3379 3.98952 11.2839 7.99755 11.5696 11.9168C13.1575 11.9168 14.7454 11.9168 16.3942 11.9168C16.3942 11.118 16.3942 10.3426 16.3942 9.56713C16.3942 8.03025 16.7596 7.55844 18.2491 7.18941C18.2491 5.86741 18.2491 4.53607 18.2491 3.15802ZM24.5024 11.9075C26.17 11.9075 27.7579 11.9075 29.3458 11.9075C29.5566 7.46969 26.0575 3.80267 22.6569 3.1767C22.6569 4.52673 22.6569 5.87208 22.6569 7.21743C24.0434 7.48837 24.5024 8.04427 24.5071 9.43166C24.5071 10.2445 24.5024 11.0573 24.5024 11.9075ZM9.83647 14.9299C16.9188 14.9299 23.9731 14.9299 31.0461 14.9299C31.0461 14.4814 31.0461 14.0657 31.0461 13.6546C23.9497 13.6546 16.8954 13.6546 9.83647 13.6546C9.83647 14.0984 9.83647 14.5001 9.83647 14.9299ZM16.071 27.9957C15.9024 29.7101 16.8673 31.3077 18.4599 31.6814C19.4155 31.9056 20.4507 31.8776 21.4437 31.8355C21.9917 31.8122 22.5726 31.5973 23.0597 31.3217C24.1933 30.6817 24.8725 29.1962 24.5961 28.1218C21.7575 29.4391 18.9283 29.4111 16.071 27.9957ZM32.8401 48.7365C34.0439 48.7365 35.1353 48.7178 36.2267 48.7459C36.6202 48.7552 36.7795 48.6104 36.8731 48.2507C37.2291 46.8727 37.6179 45.5039 37.988 44.1352C38.0254 43.9951 38.0207 43.8409 38.0348 43.6961C37.9926 43.6541 37.9458 43.6167 37.9036 43.5747C37.7069 44.4856 37.0558 44.4389 36.4141 44.4249C35.7817 44.4108 35.1541 44.4062 34.5217 44.4342C34.3765 44.4389 34.147 44.5557 34.1095 44.6724C33.6833 45.9851 33.2804 47.3071 32.8401 48.7365ZM7.87383 48.7365C7.92067 48.6431 7.95815 48.6057 7.95346 48.5824C7.56 47.2744 7.17122 45.9664 6.74965 44.6631C6.71217 44.551 6.47797 44.4342 6.32808 44.4295C5.60672 44.4062 4.88069 44.3968 4.15933 44.4249C3.5785 44.4482 3.08667 44.3501 2.81031 43.7475C3.20378 45.3358 3.62535 46.9007 4.07502 48.4563C4.10781 48.5777 4.33265 48.7225 4.46848 48.7225C5.59736 48.7459 6.72622 48.7365 7.87383 48.7365ZM18.0618 11.8795C19.6731 11.8795 21.2235 11.8795 22.8349 11.8795C22.8349 10.9639 22.8489 10.081 22.8161 9.19809C22.8115 9.09999 22.5445 8.93183 22.3993 8.92715C21.0971 8.9038 19.7996 8.92248 18.4974 8.90847C18.2023 8.9038 18.0524 8.97854 18.0571 9.31021C18.0711 10.1464 18.0618 10.9826 18.0618 11.8795ZM36.4047 34.1806C37.7819 34.3861 38.6156 34.1105 39.0794 33.3304C39.4775 32.667 39.4213 31.8636 38.9435 31.2563C38.4236 30.5976 37.4025 30.3454 36.4047 30.6303C36.4047 31.8028 36.4047 32.98 36.4047 34.1806ZM16.2209 32.5082C16.2443 32.9753 16.2396 33.4565 16.3099 33.9236C16.3286 34.0498 16.5675 34.2319 16.7081 34.2319C19.2141 34.2506 21.7247 34.2506 24.2307 34.2366C24.3572 34.2366 24.582 34.1011 24.5914 34.0124C24.657 33.4518 24.671 32.8866 24.7038 32.3073C21.8746 34.0357 19.097 33.989 16.2209 32.5082ZM27.9124 31.5179C28.6197 32.4615 29.2193 33.279 29.8376 34.0778C29.9126 34.1759 30.0906 34.2366 30.2217 34.2366C31.5942 34.246 32.9713 34.246 34.3437 34.2366C34.4655 34.2366 34.5873 34.1385 34.7138 34.0825C34.6388 33.9517 34.5967 33.7788 34.4842 33.6994C34.3063 33.5733 34.0908 33.4892 33.88 33.4238C32.4186 32.9473 30.9524 32.4755 29.491 32.0084C29.0132 31.8589 28.5448 31.7141 27.9124 31.5179ZM4.13591 30.5789C2.99299 30.4668 2.27632 30.7845 1.87817 31.5412C1.52687 32.2046 1.61118 32.9847 2.09364 33.5686C2.58547 34.1619 3.39114 34.3861 4.13591 34.1432C4.13591 32.9613 4.13591 31.7841 4.13591 30.5789ZM20.9144 7.12868C20.9144 5.66654 20.9144 4.27447 20.9144 2.88241C20.5678 2.88241 20.268 2.88241 19.9776 2.88241C19.9776 4.3352 19.9776 5.72727 19.9776 7.12868C20.3101 7.12868 20.6052 7.12868 20.9144 7.12868ZM13.0826 34.1946C13.6634 34.1946 14.1271 34.1946 14.6236 34.1946C14.5955 33.5639 14.5674 32.9894 14.5346 32.2513C14.0053 32.9567 13.5744 33.5406 13.0826 34.1946ZM27.8422 34.2086C27.3316 33.5312 26.9007 32.9613 26.4651 32.3868C26.4229 32.4054 26.3854 32.4241 26.3433 32.4428C26.3433 33.0221 26.3433 33.606 26.3433 34.2086C26.8117 34.2086 27.266 34.2086 27.8422 34.2086Z" fill="#525252"/>
<path d="M27.5378 44.8922C27.9688 44.8922 28.3341 44.8828 28.7042 44.8969C29.3365 44.9202 29.6831 45.2238 29.6831 45.7284C29.6831 46.2422 29.3412 46.5412 28.7135 46.5552C28.1936 46.5645 27.6737 46.5552 27.1022 46.5552C26.8633 47.4568 26.6244 48.3443 26.3621 49.33C26.7649 49.33 27.1069 49.3206 27.4488 49.3347C28.0484 49.358 28.4278 49.7084 28.4091 50.1942C28.3903 50.6707 28.025 50.9696 27.4488 50.993C26.9382 51.0163 26.2684 50.8669 25.9546 51.1285C25.6267 51.3994 25.6408 52.0767 25.5049 52.5766C25.4393 52.8101 25.3831 53.0437 25.2988 53.2679C25.1208 53.7164 24.7742 53.8892 24.3151 53.7724C23.8748 53.6603 23.6547 53.3333 23.7343 52.8896C23.8467 52.2729 24.0154 51.6657 24.1653 51.021C22.9849 51.021 21.8279 51.021 20.61 51.021C20.61 51.6143 20.6147 52.1842 20.61 52.7541C20.6007 53.4221 20.3056 53.7911 19.7903 53.8051C19.2469 53.8145 18.9425 53.4408 18.9378 52.7401C18.9331 52.2216 18.9331 51.703 18.9284 51.1845C18.9284 51.1471 18.9144 51.1144 18.8956 51.035C17.8042 51.035 16.6988 51.035 15.5418 51.035C15.6777 51.5816 15.8229 52.1141 15.9446 52.6513C16.0805 53.2352 15.8838 53.637 15.4247 53.7724C14.9329 53.9219 14.5254 53.6697 14.3567 53.0811C14.16 52.4084 13.9867 51.7264 13.7853 50.993C13.359 50.993 12.9375 51.0023 12.5159 50.993C11.9538 50.979 11.5837 50.6473 11.5837 50.1755C11.5791 49.7037 11.9397 49.3674 12.5065 49.3347C12.7641 49.3206 13.0218 49.33 13.345 49.33C13.1154 48.4564 12.914 47.6343 12.6751 46.8261C12.6377 46.7093 12.4222 46.5832 12.277 46.5692C11.9069 46.5318 11.5322 46.5599 11.1622 46.5505C10.661 46.5365 10.3565 46.2843 10.305 45.7844C10.2581 45.3266 10.5907 44.9623 11.1153 44.9109C11.4432 44.8782 11.7758 44.9062 12.1786 44.9062C11.921 43.9346 11.6868 43.047 11.4432 42.1221C10.9327 42.1221 10.4502 42.1361 9.96773 42.1174C9.415 42.0987 9.07775 41.7951 9.05433 41.3373C9.03091 40.8701 9.38221 40.5104 9.94431 40.4684C10.2722 40.445 10.6048 40.4637 10.9982 40.4637C10.8249 39.7911 10.6657 39.2025 10.5205 38.6185C10.3612 37.9832 10.5673 37.5254 11.0591 37.4087C11.5791 37.2825 11.9585 37.5535 12.1318 38.1934C12.3051 38.8194 12.4409 39.4547 12.6424 40.0713C12.6939 40.2302 12.914 40.445 13.0592 40.445C14.9938 40.4684 16.9236 40.4637 18.9472 40.4637C18.9472 39.735 18.8956 39.0343 18.9706 38.3476C19.0081 38.0299 19.2235 37.6235 19.4811 37.4647C19.9964 37.1564 20.5819 37.5955 20.61 38.2682C20.6381 38.9689 20.6147 39.6743 20.6147 40.417C20.8068 40.4357 20.966 40.4591 21.1253 40.4591C22.9099 40.4637 24.6946 40.4497 26.4792 40.4684C26.8586 40.4731 27.0413 40.375 27.1256 39.9779C27.2521 39.3426 27.4394 38.7213 27.6221 38.1C27.7908 37.5301 28.1561 37.2965 28.6479 37.404C29.1164 37.5068 29.3459 37.9132 29.2194 38.4971C29.0836 39.1277 28.9056 39.749 28.7229 40.4637C29.1726 40.4637 29.5567 40.4497 29.9408 40.4684C30.5778 40.4918 30.9244 40.7861 30.9338 41.2859C30.9432 41.8138 30.5872 42.1127 29.9173 42.1267C29.4911 42.1361 29.0602 42.108 28.6339 42.1407C28.4887 42.1501 28.2592 42.2669 28.2264 42.3837C27.9734 43.1871 27.772 44.0093 27.5378 44.8922ZM20.6475 42.1501C20.6475 43.089 20.6475 43.9673 20.6475 44.8922C22.2963 44.8922 23.9076 44.8969 25.519 44.8828C25.6361 44.8828 25.8281 44.7474 25.8609 44.6353C26.0998 43.8271 26.3059 43.005 26.5354 42.1501C24.54 42.1501 22.6148 42.1501 20.6475 42.1501ZM18.9237 42.1594C16.9986 42.1594 15.139 42.1594 13.1857 42.1594C13.4012 42.9723 13.6166 43.729 13.79 44.4951C13.8602 44.8174 14.0101 44.9062 14.3193 44.9015C15.6917 44.8875 17.0641 44.8969 18.4366 44.8922C18.5959 44.8922 18.7551 44.8688 18.9237 44.8501C18.9237 43.9392 18.9237 43.0704 18.9237 42.1594ZM20.6475 46.5879C20.6475 47.5128 20.6475 48.405 20.6475 49.33C21.9075 49.33 23.1301 49.3346 24.3526 49.3253C24.4557 49.3253 24.6337 49.2506 24.6571 49.1712C24.9007 48.3256 25.1208 47.4754 25.3597 46.5879C23.739 46.5879 22.2073 46.5879 20.6475 46.5879ZM14.3521 46.5785C14.6003 47.5128 14.8392 48.4144 15.0734 49.2973C16.3896 49.2973 17.6403 49.2973 18.8956 49.2973C18.8956 48.3723 18.8956 47.4801 18.8956 46.5785C17.3686 46.5785 15.8884 46.5785 14.3521 46.5785Z" fill="#525252"/>
<path d="M20.5488 25.305C19.3403 25.2956 18.3754 24.8565 17.5978 24.0017C17.2278 23.5906 17.2044 23.1562 17.5322 22.8105C17.8601 22.4648 18.3285 22.5022 18.7782 22.8338C19.1857 23.1328 19.6214 23.4645 20.0945 23.5906C20.858 23.7915 21.5465 23.5252 22.118 22.9506C22.6145 22.4461 23.097 22.4134 23.467 22.8058C23.8183 23.1795 23.7481 23.6326 23.2796 24.1185C22.5208 24.9032 21.5887 25.291 20.5488 25.305Z" fill="#525252"/>
<path d="M22.7883 18.7836C22.8117 18.3819 23.1724 18.0642 23.5752 18.1063C24.0108 18.153 24.2357 18.4239 24.2497 18.8444C24.2638 19.2414 23.8844 19.5778 23.4909 19.5637C23.0928 19.5404 22.7649 19.176 22.7883 18.7836Z" fill="#525252"/>
<path d="M16.811 19.559C16.4128 19.559 16.0709 19.2039 16.0803 18.8116C16.0896 18.4145 16.4409 18.0735 16.8438 18.1062C17.2747 18.1389 17.5136 18.3865 17.537 18.8162C17.5558 19.2226 17.2138 19.559 16.811 19.559Z" fill="#525252"/>
</g>
<defs>
<clipPath id="clip0_259_10240">
<rect width="41" height="57" fill="white"/>
</clipPath>
</defs>
</svg>
