<svg width="54" height="57" viewBox="0 0 57 57" fill="none" xmlns="http://www.w3.org/2000/svg">
<g clip-path="url(#clip0_259_10230)">
<path d="M13.2226 57C12.6822 56.7337 12.0858 56.5375 11.6059 56.1871C10.8231 55.6125 10.3992 54.7622 10.3945 53.7858C10.3712 50.7072 10.3246 47.6285 10.4225 44.5498C10.5156 41.6206 12.1417 39.6304 14.6623 38.299C16.3396 37.4114 18.18 37.0937 20.0157 36.7386C22.103 36.3369 24.1857 35.9117 26.273 35.5287C26.6411 35.4586 26.725 35.3231 26.7622 34.9634C26.8694 33.9216 26.6085 33.1788 25.7046 32.478C24.0692 31.2073 23.2119 29.3853 22.8905 27.3391C22.8345 26.9934 22.7181 26.8485 22.3779 26.7551C21.3343 26.4701 20.7053 25.6666 20.6214 24.5781C20.6074 24.3772 20.5981 24.167 20.6121 23.9661C20.6634 23.27 20.5515 22.7421 19.9225 22.2142C18.7531 21.2424 19.1258 19.299 20.4956 18.6216C20.6447 18.5468 20.7985 18.4908 20.8451 18.4721C21.0408 17.2061 21.1153 15.9727 21.4321 14.8094C22.6901 10.2311 26.8228 7.11041 31.5472 6.99361C34.0119 6.93755 36.3415 7.31129 38.4289 8.6988C41.5785 10.7917 43.2138 13.7583 43.4002 17.5331C43.4142 17.8274 43.4002 18.1217 43.4002 18.4207C44.374 18.7477 44.989 19.3551 45.1101 20.3642C45.2219 21.2938 44.8772 22.018 44.1177 22.5739C43.95 22.7 43.8335 22.957 43.7869 23.1765C43.731 23.4242 43.7729 23.6951 43.7729 23.9521C43.7729 25.7133 43.2744 26.3907 41.5831 26.8999C41.4154 28.222 41.0799 29.5348 40.2692 30.614C39.589 31.525 38.7224 32.2911 37.9536 33.1367C37.8092 33.2956 37.6741 33.5198 37.6601 33.7207C37.6182 34.272 37.6461 34.8279 37.6461 35.4305C38.9553 35.6875 40.2413 35.9211 41.5226 36.192C43.745 36.6639 45.9814 37.075 48.1712 37.6683C49.8858 38.1355 51.3721 39.0979 52.4996 40.5321C53.4081 41.686 53.944 43.0081 53.9626 44.475C54.0092 47.5537 54.0092 50.6324 53.9812 53.7111C53.9672 55.2528 52.9748 56.4534 51.4932 56.8832C51.3907 56.9112 51.2882 56.9626 51.1904 57C38.536 57 25.877 57 13.2226 57ZM48.7396 39.7005C48.6837 39.85 48.6558 39.9154 48.6371 39.9855C47.7333 42.8259 47.2627 45.7458 47.1182 48.7217C47.0856 49.3851 46.7548 49.7027 46.2097 49.656C45.6925 49.6093 45.4316 49.2542 45.4642 48.6189C45.5807 46.2036 45.8975 43.821 46.5032 41.4805C46.7082 40.6816 46.9272 39.8827 47.1462 39.0698C46.9971 39.0184 46.8946 38.9717 46.7921 38.9484C44.9471 38.5793 43.0974 38.2009 41.2477 37.8599C41.0846 37.8318 40.8097 38.0047 40.6979 38.1588C38.5081 41.3029 36.2996 44.4423 34.175 47.6332C33.6765 48.3806 33.2432 49.2963 33.1546 50.1699C32.9776 51.8377 33.0708 53.5382 33.0568 55.2201C33.0568 55.2481 33.1034 55.2715 33.1127 55.2855C37.2268 55.2855 41.3222 55.2855 45.4363 55.2855C45.4363 54.2951 45.4316 53.3514 45.4363 52.4077C45.4409 51.7116 45.7484 51.3378 46.2936 51.3519C46.8154 51.3659 47.0949 51.7209 47.0996 52.3937C47.1043 53.3514 47.0996 54.3138 47.0996 55.3088C48.4042 55.3088 49.6622 55.3602 50.9108 55.2901C51.7169 55.2434 52.3272 54.5146 52.3319 53.6877C52.3412 50.5717 52.4064 47.451 52.2853 44.3396C52.1874 42.0738 50.7524 40.6676 48.7396 39.7005ZM17.1596 39.0325C19.0979 44.3816 19.0373 49.8382 18.9441 55.2855C23.1327 55.2855 27.2282 55.2855 31.3515 55.2855C31.3515 53.926 31.3376 52.6086 31.3562 51.2958C31.3748 49.8943 30.9602 48.6423 30.1634 47.493C28.0062 44.391 25.8584 41.2796 23.7291 38.1635C23.5055 37.8412 23.2911 37.7945 22.951 37.8645C21.7769 38.1075 20.5935 38.327 19.4194 38.5653C18.6972 38.7101 17.9797 38.8643 17.1596 39.0325ZM22.2661 22.9523C22.2661 23.3354 22.2661 23.6998 22.2661 24.0689C22.2708 25.0219 22.4059 25.162 23.3517 25.1854C24.1112 25.2041 24.3954 25.4657 24.4233 26.2179C24.6423 31.3007 29.6975 34.0711 33.6672 33.2395C37.3945 32.4546 39.6775 29.8571 39.9757 26.0777C40.0223 25.4937 40.3018 25.2181 40.8936 25.1854C41.0986 25.1761 41.3269 25.2274 41.4946 25.148C41.7182 25.0359 42.0351 24.8397 42.063 24.6481C42.1376 24.0969 42.091 23.5223 42.091 22.9523C35.4563 22.9523 28.8961 22.9523 22.2661 22.9523ZM31.3515 8.64274C30.7458 8.74085 30.2287 8.83895 29.7022 8.89969C29.1757 8.96042 28.9055 9.17065 28.9893 9.74995C29.0406 10.0957 29.008 10.4554 28.994 10.8058C28.9754 11.343 28.6678 11.67 28.1926 11.6794C27.7174 11.6887 27.3773 11.371 27.34 10.8478C27.3167 10.5395 27.3353 10.2311 27.3353 9.89477C24.4979 11.2169 22.322 14.9776 22.7134 18.3319C29.0406 18.3319 35.3724 18.3319 41.6949 18.3319C42.0024 14.389 39.4539 10.9833 37.0404 9.89944C37.0404 10.2405 37.059 10.5488 37.0357 10.8571C36.9938 11.3851 36.6537 11.6981 36.1785 11.6794C35.7219 11.6607 35.4144 11.357 35.3911 10.8478C35.3678 10.3853 35.4004 9.91813 35.3678 9.4603C35.3584 9.3108 35.2466 9.06787 35.1395 9.03984C34.4639 8.87633 33.779 8.75953 33.0149 8.61004C33.0149 8.92305 33.0149 9.12393 33.0149 9.32482C33.0102 10.4928 33.0149 11.6607 33.0056 12.8286C33.0009 13.2304 32.8052 13.5014 32.4045 13.5855C32.0085 13.6695 31.6451 13.5855 31.4634 13.193C31.3655 12.9828 31.3562 12.7258 31.3515 12.4876C31.3469 11.2496 31.3515 10.0116 31.3515 8.64274ZM17.2668 55.3275C17.3833 50.0157 17.4206 44.7834 15.6268 39.7052C13.5954 40.6956 12.1697 42.1392 12.0998 44.4657C12.0066 47.521 12.0345 50.5857 12.0485 53.6457C12.0532 54.5847 12.766 55.2948 13.6559 55.3228C14.8394 55.3555 16.0275 55.3275 17.2668 55.3275ZM28.4116 34.2766C28.4116 34.7391 28.4442 35.1129 28.4069 35.4773C28.2858 36.5424 28.7471 37.3413 29.5065 38.0093C29.7162 38.1915 29.9165 38.3831 30.1495 38.5373C32.5583 40.1537 31.8268 40.1537 34.2868 38.5139C35.8104 37.5001 36.2856 36.0846 35.9082 34.3047C33.4482 35.2997 30.9648 35.3091 28.4116 34.2766ZM32.1995 21.2611C35.6194 21.2611 39.0392 21.2611 42.459 21.2611C42.6268 21.2611 42.8364 21.3172 42.9483 21.2424C43.1533 21.1023 43.4421 20.8687 43.4328 20.6912C43.4188 20.4716 43.1579 20.2427 42.9576 20.0698C42.8691 19.9951 42.6734 20.0465 42.5243 20.0465C35.6287 20.0465 28.7377 20.0465 21.8421 20.0465C21.7303 20.0465 21.6185 20.0418 21.5113 20.0511C21.1386 20.0792 20.915 20.2894 20.915 20.6538C20.915 21.0135 21.1246 21.2378 21.502 21.2611C21.6511 21.2705 21.7955 21.2658 21.9446 21.2658C25.3645 21.2611 28.7843 21.2611 32.1995 21.2611ZM29.3574 43.4099C30.2892 44.7647 31.2397 46.1429 32.1949 47.5304C33.1593 46.1288 34.1098 44.7507 35.037 43.4005C34.3567 43.0081 33.6672 42.6764 33.0568 42.2373C32.4558 41.8028 31.9666 41.7561 31.3515 42.2186C30.7505 42.6671 30.0609 42.9941 29.3574 43.4099ZM25.2387 37.4581C26.1379 38.7475 26.9905 40.0135 27.8944 41.2469C28.2299 41.7 28.8449 41.7794 29.2968 41.5272C29.6789 41.3076 30.047 41.0647 30.457 40.8031C28.9614 39.836 27.5683 38.8129 26.8741 37.1217C26.478 37.1918 26.1379 37.2525 25.7931 37.3179C25.6301 37.346 25.4716 37.3974 25.2387 37.4581ZM33.9094 40.8171C34.2542 41.0226 34.5198 41.1861 34.7854 41.345C35.6427 41.8589 36.1738 41.7514 36.7515 40.9198C37.4597 39.9014 38.1586 38.8783 38.8575 37.8599C38.946 37.7337 39.0159 37.5982 39.1231 37.416C38.5314 37.3086 38.0142 37.2152 37.5017 37.1217C36.7888 38.8409 35.4144 39.836 33.9094 40.8171Z" fill="#525252"/>
<path d="M27.587 5.0223C27.1397 5.50816 26.7437 5.97067 26.315 6.40514C25.5742 7.15262 24.7915 7.23671 23.8363 6.79289C22.9324 6.37244 22.0146 5.98935 21.0781 5.64364C20.0391 5.26056 19.5685 4.64856 19.5592 3.518C19.5545 3.03681 19.5871 2.55095 19.5405 2.07443C19.5266 1.9296 19.3029 1.70069 19.1678 1.69602C18.1894 1.66331 17.2063 1.68667 16.2279 1.67266C15.8691 1.66799 15.7852 1.84084 15.7899 2.14918C15.7992 2.68643 15.8039 3.22368 15.7852 3.76093C15.7619 4.63455 15.2867 5.24654 14.476 5.57357C13.4463 5.98001 12.426 6.40047 11.4103 6.84895C10.5716 7.21802 9.78887 7.11057 9.11328 6.46587C8.67066 6.04074 8.24202 5.61094 7.80405 5.18581C7.78076 5.16245 7.73882 5.16245 7.59439 5.04099C6.74176 5.90059 5.88913 6.76019 4.93399 7.72257C5.47912 8.23179 5.93572 8.63356 6.36436 9.06336C7.13779 9.83887 7.22165 10.605 6.76505 11.5908C6.34573 12.4924 5.96367 13.4174 5.61889 14.3518C5.24616 15.3562 4.6591 15.8187 3.59214 15.8327C3.09361 15.8374 2.59508 15.8421 2.09189 15.8327C1.78904 15.8281 1.66324 15.9495 1.66324 16.2625C1.67722 17.2249 1.67722 18.192 1.66324 19.1543C1.65858 19.4907 1.77506 19.6262 2.11052 19.6122C2.62769 19.5935 3.14486 19.5982 3.66669 19.6122C4.62183 19.6355 5.23684 20.1261 5.58162 21.023C5.96367 22.0228 6.37834 23.0132 6.81164 23.9943C7.19836 24.8679 7.10517 25.6527 6.42493 26.3395C5.98231 26.788 5.50707 27.1991 4.98524 27.6849C5.33468 28.04 5.5956 28.3156 5.86583 28.5866C6.3597 29.0865 6.86755 29.577 7.35211 30.0862C7.59905 30.3478 7.79007 30.3525 8.03701 30.0816C8.37247 29.7125 8.73589 29.3668 9.09465 29.0164C9.81216 28.3203 10.5716 28.2315 11.4802 28.6427C12.4353 29.0771 13.4091 29.4742 14.3921 29.8526C15.2914 30.1984 15.7666 30.8103 15.7852 31.7774C15.7946 32.2773 15.7992 32.7818 15.7852 33.2817C15.7759 33.6274 15.8877 33.7956 16.2605 33.7909C17.2016 33.7769 18.1475 33.7769 19.0933 33.7909C19.4567 33.7956 19.5825 33.6554 19.5685 33.2957C19.5452 32.7772 19.5499 32.2586 19.5685 31.74C19.6011 30.8477 20.1323 30.1236 20.9104 29.89C21.3576 29.7545 21.7211 29.862 21.94 30.2965C22.145 30.7029 22.0192 31.1794 21.5953 31.385C21.2877 31.5345 21.2132 31.7307 21.2225 32.0437C21.2365 32.5809 21.2412 33.1182 21.2179 33.6554C21.1806 34.6038 20.491 35.3793 19.5499 35.4214C18.3152 35.4728 17.0712 35.4728 15.8318 35.4214C14.8534 35.3793 14.1685 34.5898 14.1266 33.562C14.1033 33.0248 14.1079 32.4875 14.1266 31.9503C14.1359 31.6372 14.0148 31.5064 13.7259 31.3896C12.7475 31.0066 11.7877 30.5721 10.8092 30.1984C10.6368 30.1329 10.3387 30.175 10.2035 30.2871C9.79353 30.6282 9.43943 31.0393 9.05272 31.413C8.24202 32.1885 7.1704 32.2072 6.36436 31.4364C5.56298 30.6655 4.77558 29.8807 4.01147 29.0725C3.24271 28.2642 3.266 27.1944 4.03943 26.3815C4.39818 26.0078 4.7616 25.6341 5.139 25.279C5.36264 25.0688 5.39059 24.8866 5.26479 24.5969C4.83615 23.6345 4.46341 22.6488 4.03011 21.6911C3.94624 21.5089 3.68999 21.3127 3.4943 21.294C2.94452 21.2379 2.38542 21.2847 1.83097 21.2706C0.824587 21.2379 0.0371836 20.4718 0.0138876 19.4627C-0.0140675 18.3134 -0.00940834 17.1642 0.0138876 16.0103C0.0371836 14.9591 0.833905 14.1929 1.91484 14.1602C2.45064 14.1416 2.99111 14.1883 3.52226 14.1369C3.70397 14.1182 3.94624 13.9407 4.02079 13.7725C4.45875 12.7961 4.86876 11.8057 5.25548 10.8059C5.31604 10.6471 5.27877 10.3621 5.16695 10.236C4.82217 9.82486 4.41216 9.47448 4.04409 9.08205C3.23339 8.22245 3.24271 7.15729 4.07204 6.3117C4.81285 5.55488 5.55366 4.8074 6.30845 4.06926C7.15177 3.24236 8.21406 3.24236 9.07601 4.05992C9.43943 4.40563 9.79353 4.75601 10.1336 5.12508C10.3526 5.36334 10.5437 5.40071 10.8558 5.25589C11.7783 4.83543 12.7148 4.44768 13.6653 4.08795C13.9915 3.96181 14.1499 3.82633 14.1312 3.45727C14.1033 2.95739 14.1126 2.45751 14.1266 1.95296C14.1592 0.785025 14.9373 0.00951518 16.0974 0.000171684C17.1504 -0.00917181 18.208 -0.00917181 19.261 0.000171684C20.4351 0.00951518 21.1992 0.780353 21.2179 1.95296C21.2272 2.41547 21.2458 2.88264 21.2132 3.34514C21.1852 3.7656 21.3343 3.95714 21.7397 4.10664C22.6575 4.43833 23.5568 4.82142 24.4467 5.22786C24.7868 5.3867 25.0104 5.38203 25.2667 5.09705C25.6255 4.69528 26.0075 4.31687 26.4035 3.95714C27.3167 3.13024 28.7564 3.36383 29.3761 4.42899C29.5951 4.8074 29.5159 5.15311 29.2223 5.43809C28.9242 5.72774 28.5701 5.7838 28.2113 5.54086C28.0389 5.42407 27.8805 5.2699 27.587 5.0223Z" fill="#525252"/>
<path d="M17.7423 9.76855C18.553 9.93207 19.373 10.0629 20.1698 10.2731C20.8919 10.4646 21.1435 10.8944 20.9525 11.4317C20.7708 11.9456 20.3608 12.0857 19.6666 11.8615C16.5635 10.8617 13.2835 12.3193 12.0069 15.2672C10.2503 19.3176 13.2369 23.9053 17.6491 23.9333C17.6864 23.9333 17.7237 23.9333 17.761 23.9333C18.5856 23.9333 18.9257 24.1762 18.9164 24.7742C18.9071 25.3348 18.553 25.5964 17.7796 25.6058C13.4186 25.6572 9.83567 22.102 9.84965 17.7339C9.85897 13.3658 13.4093 9.81527 17.7423 9.76855Z" fill="#525252"/>
</g>
<defs>
<clipPath id="clip0_259_10230">
<rect width="54" height="57" fill="white"/>
</clipPath>
</defs>
</svg>
