<svg
  width="26"
  height="26"
  viewBox="0 0 26 26"
  fill="none"
  xmlns="http://www.w3.org/2000/svg"
>
  <path
    d="M9.74998 16.25C6.85748 16.25 1.08331 17.7017 1.08331 20.5833V22.75H18.4166V20.5833C18.4166 17.7017 12.6425 16.25 9.74998 16.25ZM3.24998 20.5833C3.48831 19.8033 6.83581 18.4167 9.74998 18.4167C12.675 18.4167 16.0333 19.8142 16.25 20.5833H3.24998ZM5.13498 9.75H5.41665C5.41665 12.1442 7.35581 14.0833 9.74998 14.0833C12.1441 14.0833 14.0833 12.1442 14.0833 9.75H14.365C14.6575 9.75 14.8958 9.51167 14.8958 9.21917V9.1975C14.8958 9.05671 14.8399 8.92169 14.7403 8.82214C14.6408 8.72259 14.5058 8.66667 14.365 8.66667H14.0833C14.0833 7.06333 13.2058 5.6875 11.9166 4.92917V5.95833C11.9166 6.26167 11.6783 6.5 11.375 6.5C11.0716 6.5 10.8333 6.26167 10.8333 5.95833V4.485C10.4866 4.39833 10.1291 4.33333 9.74998 4.33333C9.37081 4.33333 9.01331 4.39833 8.66665 4.485V5.95833C8.66665 6.26167 8.42831 6.5 8.12498 6.5C7.82165 6.5 7.58331 6.26167 7.58331 5.95833V4.92917C6.29415 5.6875 5.41665 7.06333 5.41665 8.66667H5.13498C5.06527 8.66667 4.99624 8.6804 4.93184 8.70707C4.86743 8.73375 4.80892 8.77285 4.75962 8.82214C4.71033 8.87144 4.67123 8.92996 4.64455 8.99436C4.61788 9.05876 4.60415 9.12779 4.60415 9.1975V9.23C4.60415 9.51167 4.84248 9.75 5.13498 9.75ZM11.9166 9.75C11.9166 10.9417 10.9416 11.9167 9.74998 11.9167C8.55831 11.9167 7.58331 10.9417 7.58331 9.75H11.9166ZM23.8116 6.74917L24.8191 5.85L24.0066 4.44167L22.7175 4.86417C22.5658 4.745 22.3925 4.6475 22.2083 4.57167L21.9375 3.25H20.3125L20.0416 4.57167C19.8575 4.6475 19.6841 4.745 19.5216 4.86417L18.2433 4.44167L17.4308 5.85L18.4383 6.74917C18.4166 6.93333 18.4166 7.12833 18.4383 7.3125L17.4308 8.23333L18.2433 9.64167L19.5433 9.23C19.6841 9.33833 19.8466 9.425 20.0091 9.50083L20.3125 10.8333H21.9375L22.23 9.51167C22.4033 9.43583 22.555 9.34917 22.7066 9.24083L23.9958 9.6525L24.8083 8.24417L23.8008 7.32333C23.8333 7.1175 23.8225 6.93333 23.8116 6.74917V6.74917ZM21.125 8.39583C20.7658 8.39583 20.4214 8.25316 20.1674 7.99921C19.9135 7.74525 19.7708 7.40081 19.7708 7.04167C19.7708 6.68252 19.9135 6.33808 20.1674 6.08413C20.4214 5.83017 20.7658 5.6875 21.125 5.6875C21.4841 5.6875 21.8286 5.83017 22.0825 6.08413C22.3365 6.33808 22.4791 6.68252 22.4791 7.04167C22.4791 7.40081 22.3365 7.74525 22.0825 7.99921C21.8286 8.25316 21.4841 8.39583 21.125 8.39583ZM21.0166 11.6892L20.0958 11.9925C19.9875 11.9058 19.8683 11.8408 19.7383 11.7867L19.5433 10.8333H18.3841L18.1891 11.7758C18.0591 11.83 17.9291 11.9058 17.8208 11.9817L16.9108 11.6783L16.3258 12.6858L17.0408 13.325C17.03 13.4658 17.03 13.5958 17.0408 13.7258L16.3258 14.3867L16.9108 15.3942L17.8425 15.1017C17.9508 15.1775 18.0591 15.2425 18.1783 15.2967L18.3733 16.25H19.5325L19.7383 15.3075C19.8575 15.2533 19.9766 15.1883 20.085 15.1125L21.0058 15.405L21.5908 14.3975L20.8758 13.7367C20.8866 13.5958 20.8866 13.4658 20.8758 13.3358L21.5908 12.6967L21.0166 11.6892ZM18.9583 14.5058C18.4275 14.5058 17.9941 14.0725 17.9941 13.5417C17.9941 13.0108 18.4275 12.5775 18.9583 12.5775C19.4891 12.5775 19.9225 13.0108 19.9225 13.5417C19.9225 14.0725 19.4891 14.5058 18.9583 14.5058Z"
    fill="currentColor"
  />
</svg>
