<svg width="57" height="57" viewBox="0 0 57 57" fill="none" xmlns="http://www.w3.org/2000/svg">
<g clip-path="url(#clip0_259_10252)">
<path d="M17.3688 0C18.5088 0.430941 19.1576 1.21405 19.1251 2.53004C19.4263 2.60418 19.7276 2.67368 20.0241 2.74782C24.1115 3.77652 27.068 7.07577 27.6195 11.2462C27.6658 11.6122 27.8002 11.7281 28.1617 11.7744C29.5566 11.9459 30.2934 12.8077 30.298 14.2118C30.298 14.5269 30.2841 14.842 30.3027 15.1571C30.3444 15.8846 30.2239 16.5611 29.7141 17.1357C30.4463 18.169 30.539 19.244 29.8995 20.3283C29.2461 21.4358 28.1849 21.7185 27.0819 21.6582C26.7715 22.8584 26.5768 24.04 26.1551 25.1336C25.0568 27.988 23.0317 29.9944 20.2141 31.1992C20.0427 31.2733 19.9129 31.4262 19.76 31.5467C19.899 31.695 20.0195 31.8711 20.1771 31.9869C20.3532 32.1167 20.571 32.1954 20.761 32.302C21.7944 32.8812 22.8417 33.34 24.0697 33.4558C25.7751 33.6226 27.2858 34.4057 28.7271 35.5781C28.7271 35.2815 28.7271 35.0915 28.7271 34.9016C28.7271 32.492 28.7317 30.0778 28.7224 27.6682C28.7224 27.2095 28.7827 26.8017 29.26 26.6164C29.7651 26.4218 30.0895 26.6951 30.4 27.0658C32.9673 30.0963 35.5439 33.1129 38.1158 36.1341C38.2595 36.3009 38.4078 36.4631 38.5932 36.667C38.8017 36.009 39.0149 35.4113 39.1771 34.795C39.2141 34.6652 39.1122 34.4799 39.0334 34.3455C38.811 33.9609 38.5468 33.5995 38.3337 33.2102C37.9583 32.5383 38.0463 31.8108 38.5885 31.264C39.1493 30.6987 39.7378 30.1566 40.3356 29.6283C40.9427 29.0954 41.7583 29.0074 42.3746 29.5588C43.1717 30.2724 43.941 30.4485 44.9651 30.0778C45.5212 29.8785 45.98 29.7395 46.1746 29.1371C46.2488 28.9101 46.3878 28.7062 46.5037 28.4977C46.9485 27.7053 47.6483 27.3995 48.5195 27.6404C49.2146 27.8351 49.9051 28.0482 50.591 28.2753C51.4112 28.5487 51.9163 29.1603 51.7402 30.0037C51.4993 31.1389 51.8561 31.8989 52.681 32.6449C53.0795 33.0063 53.3993 33.2056 53.9137 33.1268C54.2056 33.0805 54.5068 33.0712 54.8034 33.0758C55.619 33.0851 56.2307 33.5439 56.4346 34.3316C56.6293 35.0823 56.8054 35.8422 56.9583 36.6068C57.1066 37.3389 56.8007 38.1313 56.0917 38.3537C54.9285 38.7151 54.391 39.4334 54.1778 40.5965C54.0944 41.0552 54.0898 41.3749 54.34 41.7549C55.5032 43.5621 55.4568 43.8586 53.8812 45.3275C53.5707 45.6195 53.2649 45.916 52.9405 46.194C52.3102 46.7408 51.5085 46.8706 50.9107 46.3192C50.0627 45.5453 49.2378 45.4017 48.1719 45.8048C47.6993 45.9855 47.2544 46.0458 47.1432 46.7084C47.3563 46.9633 47.6158 47.2691 47.8754 47.5749C50.0766 50.1605 52.2778 52.7416 54.479 55.3272C54.5393 55.3967 54.6319 55.4616 54.6505 55.5404C54.72 55.8462 54.8961 56.2262 54.7849 56.4439C54.6551 56.6942 54.2566 56.949 53.9693 56.9537C51.6893 56.9954 49.4046 56.9815 47.1246 56.9722C46.55 56.9722 46.2163 56.6478 46.2117 56.1474C46.2071 55.6284 46.5546 55.3133 47.1663 55.3087C48.8161 55.304 50.4658 55.3087 52.2732 55.3087C44.9697 46.7316 37.7451 38.2471 30.4463 29.6747C30.4463 38.2657 30.4463 46.7455 30.4463 55.3087C30.6456 55.3087 30.8588 55.3087 31.0719 55.3087C34.858 55.3087 38.6441 55.3087 42.4256 55.304C42.8797 55.304 43.2829 55.355 43.4451 55.8694C43.6119 56.4069 43.3107 56.8981 42.7546 56.9676C42.6063 56.9861 42.458 56.9768 42.3097 56.9768C38.19 56.9768 34.0702 56.9768 29.9505 56.9768C28.9773 56.9768 28.7271 56.7312 28.7271 55.7674C28.7271 50.0169 28.7224 44.2664 28.7363 38.5113C28.7363 38.0849 28.6066 37.7791 28.3193 37.4826C27.0958 36.2222 25.6454 35.402 23.8288 35.073C23.9029 35.2769 23.9446 35.4252 24.0049 35.5642C24.6305 37.0099 25.2515 38.4556 25.8956 39.8921C26.1134 40.374 26.0671 40.7679 25.7334 41.1757C25.0846 41.9634 24.4683 42.7743 23.8195 43.5899C24.4961 44.7946 25.1541 45.9948 25.8446 47.181C26.1134 47.6444 26.0856 48.029 25.7751 48.46C23.8566 51.1244 21.9519 53.7981 20.038 56.4625C19.5839 57.0973 18.9722 57.1436 18.5829 56.5922C18.3002 56.1891 18.4346 55.8323 18.6941 55.4708C20.4273 53.0613 22.1419 50.6425 23.8844 48.2422C24.1485 47.8807 24.1995 47.6166 23.9539 47.2135C23.3376 46.1987 22.7907 45.1468 22.1929 44.1227C21.9102 43.6408 21.9473 43.2331 22.3041 42.8021C22.8973 42.0885 23.4673 41.3564 24.0234 40.615C24.1254 40.4806 24.1902 40.2304 24.1346 40.0914C23.6712 38.9607 23.1707 37.8486 22.6378 36.6346C22.5358 36.9172 22.4571 37.1119 22.4015 37.3111C20.571 43.6455 18.7451 49.9798 16.9239 56.3142C16.7941 56.759 16.4929 56.9629 16.0666 56.9583C15.6124 56.9537 15.3344 56.722 15.2 56.254C13.3556 49.8269 11.5019 43.4045 9.64828 36.9821C9.62511 36.8941 9.58341 36.8107 9.50463 36.6207C8.96243 37.8579 8.44804 39.0117 7.96609 40.1794C7.91975 40.2953 8.03097 40.5223 8.13292 40.6521C8.69828 41.3888 9.26828 42.121 9.85682 42.8346C10.1997 43.2516 10.2183 43.6501 9.9495 44.1088C9.35633 45.1375 8.80487 46.1848 8.19316 47.2042C7.96146 47.5888 7.95682 47.8483 8.23024 48.2283C9.95414 50.5961 11.6502 52.9871 13.3556 55.3689C13.4529 55.5033 13.5688 55.633 13.629 55.7859C13.8005 56.1984 13.6939 56.5598 13.3278 56.8146C12.9571 57.0741 12.5863 57.0463 12.2805 56.7081C12.109 56.5181 11.9654 56.2957 11.8171 56.0825C10.0237 53.5803 8.24414 51.0688 6.43219 48.5804C6.04755 48.0522 6.02438 47.6073 6.35804 47.0559C6.96048 46.055 7.50731 45.0217 8.09585 44.0162C8.26731 43.7242 8.28585 43.5157 8.04487 43.2377C7.50268 42.6029 7.02536 41.9171 6.47853 41.2869C6.07536 40.8189 6.01975 40.374 6.27926 39.8133C6.90024 38.4696 7.47487 37.1026 8.06804 35.7449C8.14682 35.5595 8.21633 35.3742 8.32292 35.1147C6.80755 35.3603 5.54706 35.9859 4.45804 36.9404C2.58121 38.59 1.66365 40.6845 1.66365 43.1775C1.65902 47.4266 1.64511 51.6758 1.67755 55.925C1.68682 56.7961 0.987064 57.1575 0.421698 56.8517C0.250235 56.7637 0.134381 56.5783 -0.00927734 56.4347C-0.00927734 51.6109 -0.00927734 46.7872 -0.00927734 41.9634C0.0231617 41.8615 0.0741373 41.7595 0.0880397 41.653C0.65804 37.5474 3.73048 34.2019 7.82706 33.5253C9.3378 33.2751 10.6446 32.7098 11.9468 32.0147C11.9654 32.0054 11.9839 31.9962 11.9932 31.9869C12.1322 31.8386 12.2666 31.6857 12.4056 31.5374C12.2573 31.4216 12.1229 31.264 11.9561 31.1899C8.86975 29.8507 6.77511 27.5987 5.7556 24.3922C5.47755 23.5164 5.35706 22.5943 5.16243 21.686C2.17341 21.9316 1.09828 18.878 2.43755 17.1449C1.70536 16.4267 1.80731 15.4768 1.80731 14.55C1.80731 12.678 2.46999 11.932 4.32828 11.7049C4.36072 11.7003 4.38853 11.6678 4.41633 11.6493C4.65731 10.4862 4.97243 9.35095 5.38487 8.24811C5.63511 7.57621 6.37658 7.49281 6.81682 8.00715C7.0856 8.32225 7.02999 8.65125 6.87243 8.99415C6.46926 9.84676 6.20975 10.7411 6.14024 11.7188C7.99389 11.7188 9.78731 11.7559 11.5854 11.7049C12.438 11.6817 13.0127 10.9357 13.0173 10.0136C13.0312 8.19714 13.0219 6.37607 13.0173 4.55963C13.0173 4.47622 12.9895 4.39281 12.9663 4.2816C12.7346 4.33257 12.5261 4.34648 12.3407 4.42062C11.6039 4.71718 10.8717 5.02301 10.1488 5.352C9.63902 5.57906 9.19877 5.47711 8.95316 5.03227C8.71682 4.60133 8.83267 4.19819 9.31926 3.9109C9.7178 3.67458 10.1256 3.43826 10.5566 3.28071C11.3537 2.98878 12.1693 2.75709 12.8644 2.53467C13.0776 1.95545 13.1841 1.36696 13.4993 0.926754C13.7773 0.537517 14.2963 0.310463 14.7041 0.0139013C15.5846 0 16.4744 0 17.3688 0ZM6.91414 17.8678C6.91414 19.068 6.8678 20.1986 6.92341 21.3246C7.0995 25.0826 8.84658 27.8953 12.2573 29.4708C15.6912 31.0555 19 30.5875 21.9473 28.2058C25.2885 25.5089 25.5388 21.7787 25.1958 17.8678C19.1205 17.8678 13.0497 17.8678 6.91414 17.8678ZM16.0712 16.1672C19.709 16.1672 23.3422 16.1626 26.98 16.1672C28.7734 16.1672 28.6251 16.2692 28.6251 14.5037C28.6251 13.4704 28.5556 13.4055 27.5222 13.4055C25.2422 13.4055 22.9576 13.4333 20.6776 13.3916C18.8471 13.3545 17.5078 11.9737 17.4615 10.1572C17.4429 9.43435 17.4568 8.71149 17.4568 7.98862C17.4568 6.15365 17.4615 4.31404 17.4522 2.47907C17.4522 1.85814 17.2715 1.68206 16.6597 1.67279C16.3261 1.66816 15.9924 1.67279 15.6588 1.67279C14.7968 1.67279 14.6902 1.77937 14.6902 2.61808C14.6902 5.0091 14.6902 7.40476 14.6902 9.79579C14.6856 12.0339 13.3232 13.4009 11.0895 13.4055C8.86511 13.4101 6.63609 13.4055 4.4117 13.4101C3.64243 13.4101 3.49414 13.563 3.48487 14.3137C3.48024 14.6103 3.48487 14.9068 3.48487 15.2034C3.4895 16.0467 3.60999 16.1719 4.44877 16.1719C8.31828 16.1719 12.1971 16.1672 16.0712 16.1672ZM53.441 43.4555C53.0795 42.8855 52.769 42.3619 52.4261 41.8568C52.1712 41.4769 52.1944 41.1247 52.3427 40.703C52.5929 40.0126 52.8154 39.299 52.959 38.5808C53.0517 38.1081 53.2463 37.8069 53.6866 37.6262C54.2288 37.4038 54.7663 37.1536 55.3132 36.908C55.1927 36.3612 55.0536 35.8607 54.9795 35.351C54.91 34.8737 54.7107 34.6884 54.2149 34.7718C53.7978 34.8413 53.3622 34.8089 52.9405 34.8459C52.4863 34.883 52.1898 34.6791 51.9024 34.3362C51.439 33.7894 50.9478 33.2519 50.4056 32.7839C49.9932 32.4271 49.8263 32.0564 49.919 31.5235C50.0117 30.9814 50.0488 30.43 50.109 29.8739C49.488 29.6839 48.9273 29.4893 48.3527 29.3549C48.2044 29.3225 47.9356 29.4337 47.8522 29.5588C47.5834 29.9759 47.361 30.43 47.1432 30.8794C46.9485 31.2826 46.6519 31.4679 46.2024 31.5513C45.4424 31.695 44.6917 31.9035 43.9549 32.1306C43.5424 32.2557 43.2041 32.2232 42.8612 31.9637C42.3932 31.6069 41.9112 31.264 41.4107 30.8933C40.8593 31.4031 40.3356 31.8896 39.7888 32.3993C40.0993 32.8951 40.3588 33.3631 40.6739 33.7941C41.0493 34.2992 41.0678 34.7672 40.8037 35.3418C40.5627 35.8746 40.4607 36.4678 40.2939 37.0331C40.1827 37.4084 40.0668 37.7838 39.9278 38.2564C41.8556 40.5223 43.8715 42.8855 45.9615 45.3414C46.1654 44.4935 46.7076 44.3127 47.4027 44.2525C47.9634 44.2062 48.5334 44.0301 49.0524 43.803C49.6224 43.5528 50.0719 43.6177 50.5354 44.0023C50.9432 44.3405 51.3834 44.6371 51.8097 44.9568C52.3797 44.4425 52.8941 43.9652 53.441 43.4555ZM16.0527 53.0845C16.15 52.7972 16.2056 52.6489 16.2473 52.496C17.1741 49.294 18.0732 46.0875 19.0463 42.8994C19.278 42.1349 19.2085 41.6669 18.5505 41.171C17.6839 40.5269 16.9054 39.7577 16.0805 39.0349C15.0841 39.9107 14.1527 40.7586 13.1841 41.5649C12.8783 41.8198 12.8319 42.0468 12.9385 42.4129C13.7634 45.221 14.5697 48.029 15.3854 50.8417C15.5939 51.546 15.8071 52.2504 16.0527 53.0845ZM25.9373 11.7373C25.8122 7.90521 22.1883 4.54109 19.1205 4.36501C19.1205 6.23705 19.1112 8.10446 19.1251 9.97651C19.1297 11.084 19.7832 11.7281 20.8954 11.7373C22.3227 11.7512 23.75 11.742 25.1773 11.742C25.4322 11.7373 25.6824 11.7373 25.9373 11.7373ZM15.0471 37.7189C14.3102 36.2592 13.6012 34.8506 12.8783 33.4187C12.1044 33.8265 11.4093 34.1972 10.7049 34.5679C11.2378 36.4353 11.7568 38.2425 12.299 40.1377C13.2444 39.3083 14.1249 38.5298 15.0471 37.7189ZM19.8341 40.1006C20.3671 38.261 20.8722 36.528 21.3634 34.7857C21.3912 34.6838 21.3078 34.4845 21.2151 34.4335C20.5895 34.086 19.9546 33.7663 19.2873 33.4234C18.5505 34.8923 17.8415 36.3056 17.1324 37.7189C18.0315 38.5159 18.8934 39.2712 19.8341 40.1006ZM18.1473 31.9406C16.7339 31.9406 15.4317 31.9406 14.0276 31.9406C14.7041 33.2983 15.3761 34.6467 16.0897 36.0739C16.7988 34.6421 17.4707 33.2983 18.1473 31.9406ZM26.98 17.8585C26.98 18.5953 26.98 19.2718 26.98 19.953C27.5593 19.9762 28.1802 20.092 28.4397 19.4943C28.588 19.156 28.588 18.637 28.4305 18.308C28.1571 17.7288 27.5454 17.8307 26.98 17.8585ZM5.21804 17.8678C4.59706 17.8076 4.03633 17.789 3.68414 18.3544C3.43853 18.7529 3.45706 19.1745 3.73975 19.5499C4.11975 20.055 4.65731 19.9947 5.21804 19.9391C5.21804 19.2394 5.21804 18.5814 5.21804 17.8678Z" fill="#525252"/>
<path d="M38.4125 15.9497C38.3615 14.8051 38.6674 14.3881 39.7888 14.0869C40.1642 13.9849 40.5396 13.883 40.9196 13.7949C41.7583 13.6003 42.4071 13.832 42.6713 14.6383C42.9586 15.5094 43.6722 15.5141 44.3117 15.6809C44.4739 15.7226 44.7103 15.5372 44.891 15.4168C46.0032 14.68 46.4805 14.7217 47.4074 15.6577C47.5139 15.7643 47.6113 15.8755 47.7225 15.9728C48.7744 16.9088 48.9505 17.6363 48.0191 18.7902C47.741 19.1377 48.0747 20.3286 48.4686 20.5464C50.0674 21.4268 50.1276 21.5704 49.6456 23.3544C49.59 23.549 49.5391 23.7483 49.4788 23.9429C49.2147 24.8002 48.7049 25.2357 47.8291 25.0596C46.9208 24.8789 46.5871 25.5323 46.1052 25.9864C46.0078 26.0744 46.0542 26.3339 46.0635 26.5146C46.1561 27.9372 45.892 28.3079 44.511 28.6786C44.3859 28.7111 44.2561 28.7342 44.1356 28.7759C42.8381 29.2115 42.0549 28.9103 41.573 27.636C41.42 27.2329 40.2105 26.9085 39.8352 27.1309C38.2086 28.0994 38.0927 28.0855 36.7766 26.7417C36.633 26.5981 36.4893 26.4544 36.3457 26.3061C35.7525 25.6759 35.6274 25.004 36.202 24.3646C36.8183 23.6834 36.4893 23.0625 36.29 22.423C36.2391 22.2608 35.9703 22.1496 35.7803 22.0523C34.5893 21.4638 34.39 21.0283 34.7376 19.7493C34.8257 19.4296 34.9091 19.1053 35.0017 18.7855C35.2613 17.9144 35.7988 17.5437 36.6978 17.6132C37.7822 17.6966 38.4588 17.0386 38.4125 15.9497ZM38.4913 26.0744C39.2605 25.2682 40.0715 25.2079 41.1837 25.4813C42.2635 25.7501 42.8983 26.1857 43.2274 27.1773C43.2366 27.2051 43.2876 27.2143 43.3432 27.2514C43.6769 27.1634 44.0291 27.0661 44.4183 26.9595C44.3952 26.6722 44.3952 26.4127 44.3488 26.1625C44.2376 25.5555 44.4044 25.0921 44.9327 24.7214C45.2571 24.4943 45.5352 24.17 45.7715 23.8456C46.0681 23.4378 46.4203 23.3127 46.9161 23.3405C48.1117 23.4147 47.8105 23.5954 48.1535 22.4694C48.1674 22.4184 48.1674 22.3628 48.1859 22.2284C47.1478 21.955 46.652 21.3109 46.3554 20.1988C46.0727 19.1377 46.0866 18.3592 46.8096 17.5807C46.8281 17.5622 46.8188 17.5159 46.8188 17.5251C46.5547 17.2286 46.3137 16.9505 46.0356 16.6308C45.2664 17.3027 44.5481 17.6039 43.4591 17.261C42.4025 16.9274 41.4849 16.705 41.2903 15.426C40.8361 15.5465 40.47 15.6392 40.0808 15.7411C40.1039 16.047 40.0947 16.3065 40.141 16.5567C40.2522 17.1683 40.0854 17.6271 39.5478 17.9885C39.2466 18.1878 38.9778 18.4797 38.7786 18.7809C38.4635 19.2628 38.0649 19.4157 37.5088 19.3694C36.5774 19.2906 36.5727 19.3138 36.3364 20.2313C36.3225 20.2822 36.3225 20.3378 36.3178 20.412C36.7535 20.6483 37.3003 20.7919 37.5922 21.1487C37.8842 21.4963 37.8471 22.0987 38.0835 22.5157C38.6488 23.5166 38.4032 24.346 37.6849 25.1245C37.6664 25.1477 37.6757 25.194 37.6757 25.1755C37.9444 25.4767 38.1947 25.7501 38.4913 26.0744Z" fill="#525252"/>
<path d="M32.6199 45.0264C32.6199 42.7651 32.6245 40.4992 32.6152 38.2379C32.6152 37.7792 32.6801 37.3668 33.1574 37.1861C33.6347 37.0053 33.9591 37.2509 34.2604 37.6031C38.1994 42.2369 42.143 46.866 46.0913 51.4951C46.3786 51.8288 46.5686 52.1809 46.374 52.6072C46.1794 53.0382 45.7762 53.0984 45.3406 53.0984C41.4618 53.0938 37.5877 53.0938 33.7089 53.0938C32.8933 53.0938 32.6152 52.8111 32.6152 51.9817C32.6199 49.6648 32.6199 47.3479 32.6199 45.0264ZM34.3345 40.2721C34.3345 44.0765 34.3345 47.7372 34.3345 51.3932C37.4811 51.3932 40.586 51.3932 43.8067 51.3932C40.6277 47.6676 37.5135 44.007 34.3345 40.2721Z" fill="#525252"/>
<path d="M50.8132 37.8951C50.8271 40.2259 48.9503 42.1211 46.6332 42.1257C44.3301 42.1303 42.4347 40.2676 42.4162 37.9831C42.3976 35.6616 44.2744 33.7432 46.5776 33.7247C48.9225 33.7108 50.7993 35.5597 50.8132 37.8951ZM44.0844 37.9414C44.0844 39.3084 45.2152 40.4436 46.6008 40.4575C48.0049 40.4715 49.1449 39.3315 49.1403 37.9182C49.1357 36.542 48.0096 35.4114 46.6286 35.4021C45.2383 35.3882 44.0844 36.5374 44.0844 37.9414Z" fill="#525252"/>
<path d="M42.2125 24.1788C40.6322 24.1603 39.3949 22.9092 39.4088 21.3383C39.4181 19.786 40.7064 18.5071 42.2542 18.5117C43.8298 18.5164 45.1134 19.8231 45.0903 21.3986C45.0625 22.9555 43.7788 24.1974 42.2125 24.1788ZM42.2125 22.506C42.8659 22.5199 43.3942 22.0241 43.4127 21.3847C43.4312 20.7498 42.9215 20.2077 42.2773 20.1892C41.6425 20.1706 41.1003 20.6896 41.0771 21.3244C41.0586 21.9732 41.559 22.4921 42.2125 22.506Z" fill="#525252"/>
</g>
<defs>
<clipPath id="clip0_259_10252">
<rect width="57" height="57" fill="white"/>
</clipPath>
</defs>
</svg>
