<svg width="45" height="57" viewBox="0 0 57 57" fill="none" xmlns="http://www.w3.org/2000/svg">
<g clip-path="url(#clip0_259_10222)">
<path d="M2.73605 56.9999C1.37269 56.4943 0.857956 55.5015 0.932153 54.0904C0.992437 52.9229 0.941427 51.7554 0.950702 50.5834C0.950702 50.2938 0.876505 50.1053 0.640005 49.8801C0.357132 49.6089 0.0974453 49.1861 0.0649845 48.8092C-0.013849 47.8715 -0.013849 46.9154 0.0649845 45.9732C0.0974453 45.5963 0.347858 45.1688 0.626093 44.8976C0.848682 44.677 0.941427 44.5023 0.950702 44.2082C1.00635 42.7833 0.908966 41.3262 1.19184 39.9473C1.75759 37.1665 3.45482 35.1762 6.13052 34.1144C9.61775 32.7309 13.1235 31.3934 16.6247 30.0604C17.0327 29.9041 17.1626 29.7157 17.1997 29.2698C17.2831 28.2448 17.0142 27.5048 16.1748 26.7878C14.7605 25.5835 14 23.9334 13.6846 22.1086C13.629 21.7869 13.5223 21.6536 13.1792 21.5938C10.4107 21.0928 9.04736 18.3764 10.2901 15.8667C10.3226 15.8024 10.3504 15.7334 10.3783 15.6737C9.45544 14.6441 9.69658 13.426 9.88671 12.2769C9.998 11.6013 10.5916 11.1922 11.315 11.1278C11.6535 11.1003 11.788 11.0083 11.8204 10.6452C12.2517 6.01663 14.6909 2.89568 19.0453 1.2088C19.2679 1.12146 19.4812 0.942204 19.6342 0.758348C20.0099 0.294111 20.4736 0.0183269 21.0718 0.0137305C22.0271 0.00453774 22.9823 0.00453774 23.9376 0.0137305C24.5358 0.0183269 24.9995 0.294111 25.3752 0.758348C25.5282 0.9468 25.7415 1.13066 25.9641 1.2088C30.082 2.64287 32.9014 6.28782 33.1843 10.5947C33.2075 10.9578 33.3003 11.1003 33.6944 11.137C34.5523 11.2152 35.1691 11.8679 35.2247 12.7182C35.2572 13.2927 35.234 13.8673 35.2247 14.4418C35.2247 14.5705 35.1969 14.6992 35.1598 14.8233C35.0763 15.1083 35.0253 16.4826 35.0949 16.7676C35.6328 18.9785 34.2138 21.1342 31.9183 21.5984C31.756 21.6306 31.5891 21.6582 31.4082 21.6904C31.1578 23.3772 30.5411 24.8895 29.4374 26.1811C29.0896 26.5901 28.7094 26.9854 28.2874 27.3164C27.921 27.6013 27.8051 27.9047 27.8144 28.3552C27.8422 29.872 27.8283 29.872 29.2705 30.4235C32.4424 31.6416 35.6096 32.8596 38.7815 34.0777C41.907 35.2819 43.9845 38.2144 44.0633 41.5468C44.0819 42.4385 44.0773 43.3256 44.068 44.2173C44.0633 44.5115 44.1654 44.6862 44.3879 44.9068C44.6662 45.1826 44.9212 45.6055 44.9537 45.9824C45.0325 46.92 45.0325 47.8761 44.9537 48.8183C44.9212 49.1952 44.6615 49.6181 44.3787 49.8893C44.1468 50.1145 44.068 50.2984 44.068 50.5926C44.0773 51.76 44.0216 52.9321 44.0865 54.0996C44.1607 55.5107 43.646 56.5035 42.2826 57.0091C38.9531 57.0091 35.6189 57.0091 32.2893 57.0091C31.9369 56.715 31.6123 56.4116 31.8163 55.8876C32.0157 55.3728 32.4516 55.3314 32.9246 55.336C33.815 55.3452 34.7053 55.3406 35.6374 55.3406C35.6374 55.0465 35.6374 54.8258 35.6374 54.6052C35.6374 50.1007 35.6374 45.5917 35.6374 41.0872C35.6374 40.4115 35.9296 40.0668 36.4721 40.0714C37.0054 40.076 37.3068 40.4345 37.3208 41.0964C37.33 41.5239 37.3208 41.9513 37.3208 42.3742C37.3208 43.105 37.3208 43.8404 37.3208 44.5713C39.0597 44.5713 40.7106 44.5713 42.38 44.5713C42.38 43.4681 42.4635 42.4018 42.3615 41.3584C42.0971 38.6465 40.7523 36.6609 38.1416 35.6359C36.0594 34.8177 33.9634 34.0317 31.8766 33.2136C31.5566 33.0895 31.3433 33.117 31.079 33.3423C29.8965 34.3397 28.6908 35.3095 27.5037 36.2977C26.9889 36.7252 26.451 36.9918 25.7554 36.7896C25.6534 36.762 25.4586 36.8355 25.3937 36.9229C25.1294 37.2768 24.879 37.6307 24.9764 38.1363C25.0737 38.6419 25.0923 39.1659 25.1433 39.6853C25.5421 43.4635 25.9363 47.2418 26.3351 51.02C26.4881 52.4495 26.6411 53.8836 26.7988 55.3498C27.3506 55.3498 27.8561 55.3636 28.3569 55.3452C28.8438 55.3269 29.2797 55.4142 29.4513 55.9198C29.6229 56.43 29.3354 56.7655 28.918 57.0183C20.1814 56.9999 11.4587 56.9999 2.73605 56.9999ZM18.2431 55.3039C18.3543 54.2743 18.461 53.2631 18.5677 52.2519C18.9247 48.8413 19.2864 45.4308 19.6435 42.0203C19.7873 40.6367 19.9357 39.2532 20.0701 37.8697C20.1165 37.3733 19.611 36.6838 19.2586 36.7758C18.6094 36.9458 18.09 36.739 17.6031 36.3345C16.3974 35.3371 15.1778 34.3535 13.9814 33.3423C13.6846 33.094 13.4481 33.0527 13.0864 33.1952C10.9718 34.0363 8.84796 34.8591 6.72409 35.6726C5.7039 36.0633 4.88774 36.7206 4.17824 37.5296C2.36043 39.598 2.58766 42.0846 2.65721 44.5667C4.34518 44.5667 6.00068 44.5667 7.69792 44.5667C7.69792 44.3277 7.69792 44.1254 7.69792 43.9232C7.69792 42.9579 7.68864 41.9927 7.70256 41.032C7.71183 40.4115 8.02716 40.0622 8.5419 40.0576C9.07055 40.053 9.3627 40.3885 9.38125 41.0182C9.38588 41.1653 9.38125 41.317 9.38125 41.4641C9.38125 45.8583 9.38125 50.257 9.38125 54.6512C9.38125 54.8672 9.38125 55.0832 9.38125 55.3085C12.3769 55.3039 15.2891 55.3039 18.2431 55.3039ZM15.2984 16.0552C15.2984 17.9167 15.1685 19.7231 15.3262 21.5065C15.6323 25.0411 18.8691 27.7209 22.6253 27.7117C26.2006 27.7025 29.3678 24.9768 29.6785 21.4973C29.8362 19.7323 29.7435 17.9397 29.7574 16.1609C29.7574 16.1287 29.7203 16.1011 29.6878 16.0552C24.8975 16.0552 20.098 16.0552 15.2984 16.0552ZM21.0069 11.0589C22.0178 11.0589 22.9777 11.0589 23.9933 11.0589C23.9933 10.5257 23.9793 10.0293 23.9979 9.52829C24.0164 8.96293 24.355 8.59981 24.828 8.59062C25.3242 8.58143 25.6627 8.95833 25.672 9.55587C25.6812 10.0477 25.672 10.5395 25.672 11.0635C27.6521 11.0635 29.5533 11.0635 31.4453 11.0635C31.8812 8.06203 28.3987 3.19444 25.672 2.9968C25.672 3.83334 25.6812 4.66529 25.6673 5.49724C25.6627 5.99365 25.403 6.30161 24.8929 6.34757C24.4153 6.39354 24.0582 6.07179 24.0025 5.5478C23.9793 5.32717 23.9933 5.10195 23.9886 4.88132C23.9886 3.82875 23.9886 2.78077 23.9886 1.7098C22.9638 1.7098 22.0085 1.7098 21.0347 1.7098C21.0208 1.85689 21.0069 1.9672 21.0069 2.07752C21.0069 5.0422 21.0069 8.00688 21.0069 11.0589ZM19.305 2.94624C16.1377 3.79197 13.0308 8.21371 13.5594 11.0405C15.47 11.0405 17.3805 11.0405 19.305 11.0405C19.305 8.31943 19.305 5.65352 19.305 2.94624ZM33.5136 12.8193C26.1218 12.8193 18.7995 12.8193 11.5005 12.8193C11.5005 13.3617 11.5005 13.8489 11.5005 14.3361C18.8598 14.3361 26.1681 14.3361 33.5136 14.3361C33.5136 13.8167 33.5136 13.3295 33.5136 12.8193ZM2.62939 50.2019C2.62939 51.7509 2.61548 53.2447 2.63867 54.7431C2.64794 55.1614 2.96327 55.3314 3.38063 55.3314C4.42865 55.3269 5.47667 55.3314 6.52469 55.3314C6.90958 55.3314 7.28984 55.3314 7.64691 55.3314C7.64691 53.5664 7.64691 51.8887 7.64691 50.2019C5.97286 50.2019 4.34518 50.2019 2.62939 50.2019ZM37.3486 50.2111C37.3486 51.9485 37.3486 53.6216 37.3486 55.3269C38.8325 55.3269 40.2701 55.3314 41.7076 55.3223C42.1667 55.3177 42.3754 55.0373 42.3754 54.6006C42.38 53.7273 42.3754 52.8586 42.3754 51.9853C42.3754 51.3969 42.3754 50.8132 42.3754 50.2111C40.6596 50.2111 39.018 50.2111 37.3486 50.2111ZM26.0708 28.6907C23.6872 29.6238 21.3036 29.587 18.934 28.6723C18.7253 29.8858 18.7624 29.9961 19.5971 30.6901C19.8986 30.9383 20.2464 31.1498 20.4921 31.4439C21.2202 32.3127 22.1662 32.4506 23.2003 32.3173C23.3719 32.2943 23.562 32.2345 23.6918 32.1288C24.2622 31.6784 24.763 31.1314 25.3798 30.7545C26.2099 30.2489 26.2284 29.5502 26.0708 28.6907ZM1.75759 46.2949C1.75759 47.0579 1.75759 47.7658 1.75759 48.4828C3.74697 48.4828 5.69926 48.4828 7.65618 48.4828C7.65618 47.7336 7.65618 47.0257 7.65618 46.2949C5.67607 46.2949 3.7377 46.2949 1.75759 46.2949ZM37.3393 46.3041C37.3393 47.0717 37.3393 47.7658 37.3393 48.4874C39.3241 48.4874 41.2717 48.4874 43.2518 48.4874C43.2518 47.7474 43.2518 47.0395 43.2518 46.3041C41.2717 46.3041 39.3194 46.3041 37.3393 46.3041ZM25.0459 55.2809C25.0645 54.3156 24.9068 53.4975 24.0953 52.8034C22.9963 51.8612 22.0178 50.781 20.9837 49.7606C20.8724 49.6503 20.7472 49.5538 20.571 49.3975C20.5014 49.9996 20.4504 50.5098 20.3762 51.02C20.3252 51.3556 20.4087 51.6038 20.6683 51.8566C21.6885 52.8356 22.6995 53.8238 23.6779 54.8488C24.0675 55.2533 24.457 55.4418 25.0459 55.2809ZM20.084 33.2641C19.3514 32.6574 18.679 32.0966 17.9973 31.5543C17.8999 31.4761 17.7144 31.4256 17.6078 31.4669C16.8797 31.7289 16.1609 32.0185 15.3726 32.3265C16.5458 33.2917 17.6588 34.2018 18.7995 35.144C19.2493 34.4914 19.6528 33.8984 20.084 33.2641ZM29.6229 32.354C28.8392 32.0507 28.1483 31.7749 27.4527 31.5221C27.3321 31.4807 27.1373 31.4761 27.0446 31.5497C26.3351 32.1104 25.6441 32.6896 24.9346 33.2733C25.3798 33.926 25.7832 34.5189 26.2191 35.1532C27.3599 34.211 28.4497 33.3193 29.6229 32.354ZM21.0161 45.1918C20.9419 45.7985 20.8446 46.2719 20.8492 46.7408C20.8492 46.9982 20.9512 47.3245 21.1228 47.5084C22.0363 48.4598 22.9916 49.3699 23.9144 50.3076C24.1185 50.5144 24.2622 50.7718 24.4338 51.0062C24.4941 50.9557 24.5497 50.9005 24.61 50.85C24.5822 50.6155 24.5265 50.3765 24.5358 50.1421C24.5822 49.016 24.1695 48.1473 23.2745 47.4164C22.4954 46.7729 21.8277 45.9962 21.0161 45.1918ZM22.5232 36.5505C22.5279 36.5735 22.5325 36.6011 22.5372 36.6241C22.9221 36.5459 23.4229 36.5919 23.6733 36.3667C24.3874 35.7186 24.3689 35.4152 23.8124 34.6017C23.7197 34.4638 23.6408 34.3075 23.5249 34.1972C23.4275 34.1053 23.293 34.0179 23.1632 34.0041C21.8184 33.8433 21.5309 33.9857 20.8492 35.1394C20.7889 35.2406 20.7286 35.3831 20.7518 35.4842C20.9095 36.1323 21.4984 36.5597 22.1894 36.5597C22.3007 36.5505 22.412 36.5505 22.5232 36.5505ZM31.4824 19.9162C32.5166 19.7737 33.3837 19.0382 33.4765 18.1098C33.6063 16.7768 33.2214 15.6093 31.4824 16.1149C31.4824 17.3698 31.4824 18.6246 31.4824 19.9162ZM13.4945 19.9667C13.4945 18.6246 13.4945 17.3468 13.4945 15.9357C12.9798 16.0414 12.4001 15.9908 12.0987 16.2574C11.4634 16.8228 11.3011 17.6271 11.6071 18.4499C11.9271 19.3002 12.5856 19.7553 13.4945 19.9667ZM24.0953 45.8904C24.0025 45.0677 23.933 44.4242 23.8588 43.7807C23.8356 43.583 23.8681 43.3164 23.7521 43.1969C23.0194 42.4523 22.2543 41.7399 21.4428 40.9585C21.3732 41.648 21.3083 42.2685 21.2573 42.8936C21.248 42.9901 21.3036 43.1188 21.3732 43.1877C22.2357 44.0519 23.1075 44.9068 24.0953 45.8904ZM23.2884 38.2558C22.7551 38.2558 22.2589 38.2558 21.6514 38.2558C21.874 39.3544 22.8896 39.7083 23.5156 40.4023C23.4414 39.7129 23.3672 39.0234 23.2884 38.2558ZM20.1026 53.7687C20.0516 54.3064 20.0006 54.7891 19.9542 55.2993C20.5524 55.2993 21.1042 55.2993 21.6097 55.2993C21.1274 54.8121 20.6405 54.3202 20.1026 53.7687Z" fill="#525252"/>
</g>
<defs>
<clipPath id="clip0_259_10222">
<rect width="45" height="57" fill="white"/>
</clipPath>
</defs>
</svg>
