<svg
  width="37"
  height="37"
  viewBox="0 0 37 37"
  fill="none"
  xmlns="http://www.w3.org/2000/svg"
>
  <path
    d="M12.7114 0C13.1937 0.203707 13.7235 0.332722 14.1481 0.621307C15.0889 1.26298 15.4251 2.2272 15.4217 3.3408C15.4115 8.14828 15.4183 12.9524 15.4183 17.7565C15.4183 19.2979 15.4251 20.8392 15.4115 22.3806C15.4081 22.6488 15.3504 22.9306 15.2519 23.1819C14.79 24.3702 14.3043 25.5483 13.8288 26.7298C13.7847 26.8384 13.7473 26.9504 13.6896 27.1066C13.8798 27.1202 14.0428 27.1304 14.2024 27.1474C14.5624 27.1881 14.8002 27.4292 14.8002 27.7551C14.8002 28.0607 14.5794 28.3391 14.2364 28.3458C13.5164 28.3662 12.7929 28.3662 12.0729 28.3153C11.6484 28.2847 11.3563 27.9758 11.2 27.5887C10.5683 26.044 9.93999 24.4924 9.32865 22.9374C9.25732 22.7541 9.25732 22.5368 9.25732 22.3331C9.25393 17.9262 9.25393 13.5194 9.25393 9.1125C9.25393 8.9699 9.25393 8.8307 9.25393 8.67113C8.63239 8.67113 8.04822 8.67113 7.4131 8.67113C7.4131 8.84768 7.4131 9.01404 7.4131 9.177C7.4131 16.2694 7.4131 23.3618 7.4097 30.4542C7.4097 30.6341 7.40631 30.8175 7.36555 30.9906C7.29762 31.286 7.08365 31.4354 6.78477 31.432C6.48589 31.4286 6.27871 31.2758 6.21079 30.9805C6.15305 30.736 6.15305 30.478 6.08852 30.2369C5.75567 29.0011 4.72997 28.2949 3.43256 28.3968C2.31176 28.4816 1.37436 29.3915 1.28606 30.607C1.21473 31.5746 1.21473 32.5592 1.28606 33.5268C1.38115 34.8203 2.34912 35.6827 3.65332 35.7608C3.74842 35.7676 3.84692 35.7642 3.94201 35.7642C12.219 35.7642 20.4925 35.7642 28.7694 35.7676C29.8495 35.7676 30.6952 35.3636 31.1876 34.3756C31.3269 34.0938 31.3507 33.7543 31.4424 33.4453C31.5035 33.2416 31.5341 32.9836 31.6733 32.8681C31.8228 32.7493 32.1284 32.6848 32.2881 32.7595C32.4647 32.841 32.6515 33.1092 32.6583 33.3027C32.7024 34.3756 32.2643 35.2719 31.4933 35.995C30.7495 36.6944 29.8495 37 28.8272 37C20.5163 36.9932 12.202 36.9966 3.89107 36.9966C1.61211 36.9966 0.00562728 35.3907 0.00562728 33.1092C-0.00116545 24.1868 -0.00116545 15.2645 0.00223092 6.34208C0.00223092 4.22353 1.43889 2.66177 3.51747 2.49202C5.34471 2.34263 7.18554 3.85685 7.35536 5.68343C7.4097 6.24362 7.36215 6.81061 7.36215 7.39796C8.02784 7.39796 8.61201 7.39796 9.24714 7.39796C9.24714 7.26216 9.24714 7.13654 9.24714 7.00752C9.24714 5.79207 9.26412 4.57322 9.24374 3.35777C9.20977 1.54138 10.3781 0.251239 11.9235 0.0373463C11.9438 0.0339512 11.9642 0.0135805 11.9846 0.00339512C12.2291 0 12.4703 0 12.7114 0ZM6.17343 28.0607C6.17343 27.8569 6.17343 27.7177 6.17343 27.5785C6.17343 20.5846 6.17343 13.5873 6.17343 6.59332C6.17343 6.36585 6.15984 6.13498 6.13946 5.90751C6.0138 4.44421 4.49222 3.40191 3.07934 3.80932C1.88382 4.15223 1.23511 5.0791 1.23511 6.45412C1.23511 13.5228 1.23511 20.588 1.23511 27.6566C1.23511 27.7721 1.23511 27.8875 1.23511 28.064C2.88574 26.8486 4.49562 26.8384 6.17343 28.0607ZM12.9458 20.9886C13.3703 21.1244 13.7575 21.2466 14.1515 21.3723C14.1515 16.3135 14.1515 11.265 14.1515 6.21646C12.9186 6.21646 11.7095 6.21646 10.5004 6.21646C10.5004 11.2888 10.5004 16.3237 10.5004 21.3791C10.9181 21.2433 11.3087 21.1176 11.7129 20.9886C11.7129 20.8291 11.7129 20.6831 11.7129 20.5405C11.7129 17.2913 11.7129 14.0388 11.7129 10.7897C11.7129 10.1921 11.9099 9.90356 12.3174 9.89337C12.7454 9.88319 12.9458 10.1684 12.9458 10.7897C12.9458 14.0388 12.9458 17.2913 12.9458 20.5405C12.9458 20.6865 12.9458 20.8291 12.9458 20.9886ZM14.1651 4.92292C14.1651 4.2439 14.1922 3.58524 14.1583 2.92999C14.1141 2.07781 13.462 1.40897 12.6095 1.28335C11.7638 1.15774 10.9148 1.61268 10.6329 2.39695C10.3374 3.21857 10.5276 4.07414 10.4766 4.92632C11.7435 4.92292 12.939 4.92292 14.1651 4.92292ZM12.3344 27.1338C12.9152 25.6943 13.4654 24.3498 13.9953 22.9985C14.0224 22.9272 13.9443 22.7778 13.873 22.7133C13.0613 21.9868 11.3631 22.0241 10.6193 22.8831C11.1763 24.2649 11.7401 25.6569 12.3344 27.1338Z"
    fill="currentColor"
  />
  <path
    d="M36.9987 25.6535C36.6658 26.6822 35.7216 26.6415 34.8522 26.8452C35.0526 27.1542 35.236 27.4292 35.416 27.7076C35.8439 28.3662 35.7896 28.9366 35.2394 29.4934C34.9439 29.7922 34.6484 30.0943 34.3427 30.3863C33.8672 30.8379 33.2796 30.8956 32.7226 30.5493C32.417 30.3592 32.1249 30.1521 31.7751 29.9212C31.7037 30.2607 31.6358 30.5595 31.5781 30.8616C31.415 31.7036 30.9701 32.0703 30.1006 32.0737C29.7169 32.0737 29.3297 32.0805 28.9459 32.0703C28.2734 32.0567 27.8081 31.6799 27.6587 31.028C27.5772 30.6783 27.5092 30.3218 27.4243 29.9144C27.1254 30.1113 26.8503 30.298 26.5718 30.478C25.8993 30.9194 25.3355 30.8582 24.7582 30.2879C24.4593 29.9925 24.157 29.6971 23.8649 29.3915C23.4438 28.9468 23.3826 28.356 23.7019 27.8332C23.9023 27.5073 24.1163 27.1949 24.3472 26.8452C23.9498 26.7637 23.6 26.6958 23.2502 26.6177C22.6083 26.4684 22.2211 26.0236 22.1973 25.3751C22.1803 24.9066 22.1803 24.4347 22.1973 23.9661C22.2211 23.3313 22.5981 22.8831 23.2196 22.7337C23.5694 22.6488 23.9227 22.5843 24.3438 22.4995C24.1638 22.2177 24.0008 21.963 23.8344 21.7118C23.3385 20.9615 23.3894 20.425 24.0246 19.7868C24.2963 19.5151 24.5646 19.2368 24.8431 18.9685C25.3288 18.5034 25.9163 18.4457 26.4903 18.809C26.7926 18.9991 27.0881 19.2028 27.4243 19.4235C27.5092 19.0195 27.5805 18.6562 27.6621 18.2997C27.8115 17.6648 28.2768 17.2846 28.9255 17.2744C29.384 17.2676 29.8425 17.2642 30.2976 17.2744C30.909 17.288 31.3743 17.6546 31.5237 18.2522C31.6154 18.6188 31.6868 18.9957 31.7785 19.4235C32.1011 19.213 32.3762 19.0263 32.6547 18.8463C33.2932 18.4321 33.8672 18.4898 34.414 19.0263C34.7163 19.3216 35.0152 19.617 35.3073 19.9226C35.7726 20.4115 35.8269 21.0022 35.4635 21.5692C35.2767 21.8612 35.0797 22.1498 34.8488 22.4961C35.6843 22.6964 36.6217 22.6692 36.9987 23.63C36.9987 24.3057 36.9987 24.9779 36.9987 25.6535ZM34.4174 20.9139C34.0506 20.5303 33.7246 20.1874 33.3917 19.8377C33.0928 20.0346 32.7906 20.2519 32.4713 20.4454C31.663 20.9343 30.7901 20.5676 30.5626 19.651C30.4709 19.2809 30.4029 18.904 30.3214 18.5068C29.8935 18.5068 29.4825 18.4932 29.0783 18.517C28.9934 18.5204 28.8678 18.646 28.8406 18.7411C28.7625 19.0059 28.7285 19.2809 28.6708 19.5525C28.4398 20.5948 27.5364 20.9683 26.6398 20.3877C26.3477 20.201 26.0624 20.004 25.8212 19.8479C25.4578 20.2044 25.1182 20.5405 24.7684 20.8868C24.9586 21.1788 25.1725 21.4843 25.3661 21.8001C25.8586 22.6047 25.4986 23.484 24.585 23.7115C24.2147 23.8032 23.8378 23.8711 23.4336 23.956C23.4336 24.3905 23.4234 24.8115 23.4438 25.2291C23.4472 25.3038 23.5728 25.4125 23.6611 25.4362C23.9498 25.5177 24.2487 25.5551 24.5408 25.6264C25.519 25.8674 25.8722 26.7535 25.3322 27.6057C25.142 27.9079 24.9348 28.2033 24.7072 28.5462C24.8974 28.7193 25.0808 28.8721 25.2472 29.0452C25.4137 29.215 25.5597 29.4017 25.7058 29.5715C26.1065 29.3101 26.419 29.086 26.7518 28.8925C27.533 28.4307 28.3889 28.7804 28.6232 29.6564C28.7081 29.9687 28.7489 30.2947 28.8338 30.607C28.8576 30.6987 28.9629 30.8311 29.0342 30.8345C29.4621 30.8548 29.8901 30.8447 30.318 30.8447C30.4029 30.444 30.4675 30.0875 30.5524 29.7379C30.7833 28.7601 31.6732 28.4002 32.5257 28.94C32.8279 29.1301 33.1234 29.3338 33.3917 29.5104C33.7517 29.1539 34.0914 28.8212 34.4378 28.4783C34.2238 28.1489 33.9793 27.8196 33.7823 27.4631C33.368 26.723 33.7178 25.8878 34.5329 25.6603C34.8691 25.5653 35.2156 25.5211 35.5552 25.4362C35.6333 25.4159 35.7522 25.3174 35.7522 25.2495C35.7692 24.8183 35.7624 24.3871 35.7624 23.9526C35.3752 23.8711 35.022 23.8066 34.6722 23.7251C33.6668 23.484 33.317 22.6013 33.8774 21.7288C34.0676 21.43 34.2646 21.1414 34.4174 20.9139Z"
    fill="currentColor"
  />
  <path
    d="M21.878 14.5073C21.535 14.7348 21.2497 14.9283 20.9542 15.1184C20.3904 15.4783 19.7791 15.4274 19.3036 14.9724C18.9707 14.6567 18.6481 14.3341 18.3356 14.0014C17.8941 13.5329 17.8398 12.9252 18.1862 12.382C18.3764 12.0798 18.5802 11.781 18.8077 11.4415C18.4171 11.36 18.0571 11.2853 17.7005 11.2072C17.0756 11.068 16.6918 10.6267 16.668 9.99179C16.651 9.50969 16.651 9.02758 16.668 8.54887C16.6918 7.9004 17.0858 7.44885 17.7243 7.30965C18.0741 7.23496 18.4239 7.16705 18.8111 7.08897C18.5971 6.76643 18.4103 6.48803 18.2269 6.20624C17.8296 5.59512 17.8873 4.98739 18.39 4.47133C18.6922 4.16238 18.9979 3.85342 19.3104 3.55125C19.7791 3.1031 20.3768 3.04199 20.9271 3.38489C21.2327 3.57502 21.5282 3.77873 21.8814 4.00959C21.9629 3.62934 22.0343 3.28643 22.109 2.94353C22.2584 2.25771 22.7101 1.87746 23.3996 1.86728C23.8445 1.86049 24.2895 1.86049 24.7378 1.86728C25.4001 1.87746 25.8756 2.27129 26.0148 2.91976C26.0895 3.26946 26.1575 3.61916 26.239 4.01639C26.5718 3.7957 26.8571 3.59879 27.1492 3.41205C27.7436 3.0318 28.3447 3.09291 28.8542 3.5886C29.1463 3.87379 29.4383 4.16238 29.7236 4.45775C30.2365 4.9806 30.2976 5.58153 29.9036 6.18926C29.7202 6.47106 29.5334 6.74946 29.3127 7.08218C29.6727 7.15687 29.9919 7.22817 30.3146 7.29267C31.0754 7.44545 31.4524 7.897 31.4592 8.67449C31.4626 9.0853 31.4626 9.49271 31.4592 9.90352C31.449 10.6063 31.0822 11.0579 30.4029 11.2072C30.0565 11.2853 29.7067 11.3566 29.3161 11.4381C29.5334 11.764 29.727 12.0492 29.9138 12.3412C30.2976 12.9388 30.2365 13.5363 29.7406 14.0456C29.4383 14.3579 29.1327 14.6669 28.8202 14.9656C28.3379 15.4274 27.7402 15.4817 27.173 15.1218C26.8707 14.9317 26.5752 14.7314 26.239 14.5107C26.1608 14.8774 26.0929 15.2067 26.025 15.5326C25.8789 16.2558 25.434 16.636 24.697 16.6564C24.2623 16.6666 23.8309 16.67 23.3962 16.6564C22.6932 16.6326 22.2618 16.2592 22.1124 15.57C22.0275 15.2305 21.9561 14.8909 21.878 14.5073ZM20.2546 14.1033C20.5399 13.9132 20.8353 13.7061 21.141 13.5159C21.9833 12.9897 22.8901 13.3767 23.1143 14.3477C23.1958 14.7042 23.1924 15.1965 23.4234 15.3697C23.6645 15.5496 24.14 15.407 24.5102 15.4308C24.731 15.4444 24.8091 15.3459 24.8397 15.1524C24.8838 14.8808 24.9382 14.6092 24.9993 14.3375C25.2167 13.3699 26.1269 12.9931 26.9726 13.5227C27.2273 13.6823 27.4651 13.869 27.7266 14.015C27.8013 14.0557 27.9609 14.049 28.0255 13.9946C28.3447 13.7264 28.647 13.4344 28.9493 13.1526C28.6843 12.7486 28.4534 12.4261 28.253 12.0866C27.8183 11.3363 28.1545 10.4909 28.99 10.2498C29.3127 10.1582 29.6489 10.1174 29.975 10.0325C30.0667 10.0088 30.1957 9.90352 30.1991 9.82883C30.2195 9.40104 30.2093 8.96986 30.2093 8.53868C29.8289 8.4572 29.4859 8.3893 29.1463 8.3146C28.1443 8.09392 27.7673 7.19422 28.3141 6.32846C28.5043 6.02629 28.7081 5.73092 28.8779 5.47968C28.5179 5.1164 28.1851 4.77689 27.842 4.42719C27.5737 4.60374 27.285 4.80066 26.993 4.98739C26.1099 5.54758 25.2133 5.17073 24.9925 4.1454C24.9178 3.7991 24.8431 3.4528 24.7717 3.11328C24.2691 3.11328 23.814 3.11328 23.3249 3.11328C23.2536 3.45619 23.1856 3.7957 23.1177 4.13521C22.9071 5.15375 21.9969 5.54758 21.1206 4.99418C20.8184 4.80066 20.5195 4.60035 20.2749 4.44077C19.9081 4.79726 19.5685 5.12659 19.2153 5.4695C19.4225 5.78524 19.6568 6.10778 19.8538 6.45069C20.2885 7.21459 19.9183 8.07355 19.0692 8.29763C18.8247 8.36214 18.5768 8.42325 18.3254 8.44701C17.9926 8.48096 17.833 8.59979 17.8839 8.96647C17.9281 9.29579 17.7956 9.73376 17.9654 9.94087C18.1352 10.1446 18.5802 10.1276 18.9096 10.1955C19.9455 10.4094 20.3395 11.3295 19.7723 12.219C19.5855 12.511 19.3885 12.7996 19.2085 13.0712C19.5549 13.4141 19.8878 13.74 20.2546 14.1033Z"
    fill="currentColor"
  />
  <path
    d="M17.8873 33.3061C15.9344 33.3061 13.9849 33.3061 12.032 33.3061C11.8893 33.3061 11.7399 33.3061 11.6006 33.2722C11.2746 33.2009 11.1082 32.987 11.1149 32.6509C11.1251 32.3453 11.3425 32.1246 11.6652 32.0839C11.7738 32.0703 11.8825 32.0737 11.9912 32.0737C15.9174 32.0737 19.8436 32.0737 23.7732 32.0737C23.8921 32.0737 24.0177 32.0669 24.1332 32.0873C24.4457 32.1416 24.6291 32.325 24.6461 32.6475C24.663 32.9666 24.5102 33.1805 24.2045 33.262C24.0551 33.2994 23.8955 33.3061 23.7392 33.3061C21.7897 33.3061 19.8402 33.3061 17.8873 33.3061Z"
    fill="currentColor"
  />
  <path
    d="M19.7452 30.8413C19.0116 30.8413 18.278 30.8413 17.5443 30.8413C17.4255 30.8413 17.3032 30.8379 17.1877 30.8141C16.8413 30.7428 16.6545 30.512 16.6715 30.186C16.6885 29.8669 16.9058 29.636 17.2557 29.6191C17.6632 29.5987 18.0742 29.6089 18.4817 29.6089C19.6739 29.6089 20.8626 29.6055 22.0547 29.6089C22.5234 29.6089 22.7985 29.8329 22.8155 30.1996C22.8291 30.5765 22.537 30.8345 22.0581 30.8379C21.2871 30.8481 20.5162 30.8413 19.7452 30.8413Z"
    fill="currentColor"
  />
  <path
    d="M18.8114 27.1405C19.4974 27.1405 20.1835 27.1372 20.8696 27.1405C21.216 27.1405 21.4809 27.2696 21.559 27.6396C21.6236 27.9316 21.4571 28.2372 21.1684 28.3187C21.0224 28.3594 20.8594 28.3696 20.7065 28.3696C19.4431 28.373 18.1796 28.373 16.9196 28.3696C16.8007 28.3696 16.6784 28.3594 16.563 28.339C16.2301 28.2813 16.0603 28.064 16.0501 27.7381C16.0399 27.4291 16.2777 27.1643 16.6173 27.1541C17.3509 27.1338 18.0845 27.1473 18.8182 27.1473C18.8114 27.1473 18.8114 27.1439 18.8114 27.1405Z"
    fill="currentColor"
  />
  <path
    d="M13.2648 29.6088C13.7437 29.6088 14.226 29.602 14.7049 29.6122C15.1498 29.619 15.4011 29.843 15.4045 30.2165C15.4079 30.5832 15.1532 30.8344 14.7184 30.8378C13.7471 30.8514 12.7723 30.8514 11.801 30.8378C11.3662 30.831 11.1115 30.573 11.1183 30.2063C11.1251 29.8363 11.3764 29.619 11.8247 29.6122C12.3036 29.602 12.7859 29.6088 13.2648 29.6088Z"
    fill="currentColor"
  />
  <path
    d="M25.9028 24.6757C25.8994 22.6556 27.584 20.9683 29.6049 20.9683C31.6121 20.9717 33.3103 22.676 33.3035 24.6825C33.2967 26.6856 31.6325 28.3492 29.6151 28.3696C27.6078 28.39 25.9096 26.6992 25.9028 24.6757ZM27.1425 24.6689C27.1425 26.0202 28.2327 27.1168 29.5879 27.1304C30.943 27.1406 32.0842 25.9998 32.0638 24.6554C32.0435 23.3075 30.9227 22.1939 29.5913 22.2041C28.2463 22.2143 27.1459 23.3211 27.1425 24.6689Z"
    fill="currentColor"
  />
  <path
    d="M24.0585 12.9524C22.0207 12.9558 20.3599 11.299 20.3633 9.25851C20.3633 7.22823 22.0377 5.56122 24.0653 5.56801C26.0726 5.5748 27.7436 7.2452 27.747 9.25172C27.7504 11.2854 26.093 12.949 24.0585 12.9524ZM24.0517 11.7166C25.4103 11.7166 26.5175 10.6132 26.5141 9.2619C26.5141 7.91744 25.3933 6.79705 24.0483 6.79705C22.7 6.79705 21.5928 7.91065 21.5928 9.2619C21.5928 10.6233 22.6898 11.7166 24.0517 11.7166Z"
    fill="currentColor"
  />
</svg>
