<svg
  width="26"
  height="26"
  viewBox="0 0 26 26"
  fill="none"
  xmlns="http://www.w3.org/2000/svg"
>
  <path
    d="M2.16669 6.50004C2.16669 5.9254 2.39496 5.3743 2.80129 4.96798C3.20762 4.56165 3.75872 4.33337 4.33335 4.33337H21.6667C22.2413 4.33337 22.7924 4.56165 23.1988 4.96798C23.6051 5.3743 23.8334 5.9254 23.8334 6.50004V19.5C23.8334 20.0747 23.6051 20.6258 23.1988 21.0321C22.7924 21.4384 22.2413 21.6667 21.6667 21.6667H4.33335C3.75872 21.6667 3.20762 21.4384 2.80129 21.0321C2.39496 20.6258 2.16669 20.0747 2.16669 19.5V6.50004Z"
    stroke="currentColor"
    stroke-opacity="0.85"
    stroke-width="2.5"
    stroke-linecap="round"
    stroke-linejoin="round"
  />
  <path
    d="M2.16669 8.66675L10.2928 15.1678C11.0612 15.7826 12.0159 16.1176 13 16.1176C13.9841 16.1176 14.9389 15.7826 15.7073 15.1678L23.8334 8.66675"
    stroke="currentColor"
    stroke-opacity="0.85"
    stroke-width="2.5"
    stroke-linejoin="round"
  />
</svg>
