<svg
  width="26"
  height="26"
  viewBox="0 0 26 26"
  fill="none"
  xmlns="http://www.w3.org/2000/svg"
>
  <path
    d="M23.6925 12.4583C22.9992 11.2558 19.1858 5.22161 12.7075 5.41661C6.71666 5.56828 3.24999 10.8333 2.30749 12.4583C2.21241 12.623 2.16235 12.8098 2.16235 12.9999C2.16235 13.1901 2.21241 13.3769 2.30749 13.5416C2.98999 14.7224 6.64083 20.5833 13.0217 20.5833H13.2925C19.2833 20.4316 22.7608 15.1666 23.6925 13.5416C23.7876 13.3769 23.8376 13.1901 23.8376 12.9999C23.8376 12.8098 23.7876 12.623 23.6925 12.4583ZM13.2383 18.4166C8.56916 18.5249 5.52499 14.5274 4.57166 12.9999C5.65499 11.2558 8.48249 7.69161 12.8158 7.58328C17.4633 7.46411 20.5183 11.4724 21.4825 12.9999C20.3667 14.7441 17.5717 18.3083 13.2383 18.4166Z"
    fill="currentColor"
  />
  <path
    d="M13 9.20825C12.2501 9.20825 11.517 9.43063 10.8934 9.84726C10.2699 10.2639 9.78392 10.8561 9.49694 11.5489C9.20996 12.2417 9.13487 13.0041 9.28117 13.7396C9.42747 14.4751 9.78859 15.1508 10.3189 15.681C10.8491 16.2113 11.5248 16.5724 12.2603 16.7187C12.9958 16.865 13.7582 16.7899 14.451 16.503C15.1438 16.216 15.736 15.73 16.1526 15.1065C16.5693 14.4829 16.7916 13.7498 16.7916 12.9999C16.7916 11.9943 16.3922 11.0299 15.6811 10.3188C14.97 9.60773 14.0056 9.20825 13 9.20825ZM13 14.6249C12.6786 14.6249 12.3644 14.5296 12.0972 14.3511C11.83 14.1725 11.6217 13.9187 11.4987 13.6218C11.3757 13.3249 11.3435 12.9981 11.4062 12.6829C11.4689 12.3677 11.6237 12.0781 11.8509 11.8509C12.0782 11.6236 12.3677 11.4688 12.683 11.4061C12.9982 11.3434 13.3249 11.3756 13.6218 11.4986C13.9188 11.6216 14.1726 11.8299 14.3511 12.0971C14.5297 12.3643 14.625 12.6785 14.625 12.9999C14.625 13.4309 14.4538 13.8442 14.149 14.149C13.8443 14.4537 13.431 14.6249 13 14.6249Z"
    fill="currentColor"
  />
</svg>
