<svg
  width="26"
  height="26"
  viewBox="0 0 26 26"
  fill="none"
  xmlns="http://www.w3.org/2000/svg"
>
  <path
    d="M11.6459 15.1666C12.2923 15.1666 12.9123 15.4234 13.3694 15.8806C13.8265 16.3377 14.0834 16.9577 14.0834 17.6041V19.2313L14.0747 19.3483C13.7389 21.6525 11.6697 22.7597 8.1976 22.7597C4.73852 22.7597 2.63577 21.6655 2.18185 19.3884L2.16669 19.2291V17.6041C2.16669 16.9577 2.42349 16.3377 2.88061 15.8806C3.33773 15.4234 3.95772 15.1666 4.60419 15.1666H11.6459ZM11.6459 16.7916H4.60419C4.3887 16.7916 4.18204 16.8772 4.02966 17.0296C3.87729 17.182 3.79169 17.3886 3.79169 17.6041V19.1425C4.09502 20.4425 5.47085 21.1347 8.1976 21.1347C10.9233 21.1347 12.2384 20.4511 12.4584 19.1674V17.6041C12.4584 17.3886 12.3728 17.182 12.2204 17.0296C12.068 16.8772 11.8613 16.7916 11.6459 16.7916ZM8.12502 6.49996C8.62295 6.49996 9.116 6.59803 9.57603 6.78858C10.0361 6.97913 10.454 7.25842 10.8061 7.61051C11.1582 7.9626 11.4375 8.38059 11.6281 8.84062C11.8186 9.30064 11.9167 9.7937 11.9167 10.2916C11.9167 10.7896 11.8186 11.2826 11.6281 11.7426C11.4375 12.2027 11.1582 12.6207 10.8061 12.9727C10.454 13.3248 10.0361 13.6041 9.57603 13.7947C9.116 13.9852 8.62295 14.0833 8.12502 14.0833C7.11941 14.0833 6.15498 13.6838 5.44391 12.9727C4.73283 12.2617 4.33335 11.2972 4.33335 10.2916C4.33335 9.28601 4.73283 8.32159 5.44391 7.61051C6.15498 6.89944 7.11941 6.49996 8.12502 6.49996ZM21.3959 2.16663C22.0423 2.16663 22.6623 2.42343 23.1194 2.88055C23.5765 3.33767 23.8334 3.95766 23.8334 4.60413V8.39579C23.8334 8.71589 23.7703 9.03285 23.6478 9.32858C23.5253 9.62431 23.3458 9.89302 23.1194 10.1194C22.8931 10.3457 22.6244 10.5253 22.3286 10.6477C22.0329 10.7702 21.716 10.8333 21.3959 10.8333H19.8196L17.4731 13.1527C17.2832 13.3406 17.0419 13.468 16.7797 13.5191C16.5175 13.5702 16.2461 13.5425 15.9996 13.4397C15.753 13.3369 15.5424 13.1634 15.3942 12.9412C15.246 12.7189 15.1668 12.4578 15.1667 12.1907V10.8181C14.5708 10.7515 14.0205 10.4676 13.6207 10.0207C13.221 9.57387 13 8.99535 13 8.39579V4.60413C13 3.95766 13.2568 3.33767 13.7139 2.88055C14.1711 2.42343 14.7911 2.16663 15.4375 2.16663H21.3959ZM8.12502 8.12496C7.55038 8.12496 6.99928 8.35323 6.59296 8.75956C6.18663 9.16589 5.95835 9.71699 5.95835 10.2916C5.95835 10.8663 6.18663 11.4174 6.59296 11.8237C6.99928 12.23 7.55038 12.4583 8.12502 12.4583C8.69966 12.4583 9.25076 12.23 9.65708 11.8237C10.0634 11.4174 10.2917 10.8663 10.2917 10.2916C10.2917 9.71699 10.0634 9.16589 9.65708 8.75956C9.25076 8.35323 8.69966 8.12496 8.12502 8.12496ZM21.3959 3.79163H15.4375C15.222 3.79163 15.0154 3.87723 14.863 4.0296C14.7106 4.18197 14.625 4.38864 14.625 4.60413V8.39579C14.625 8.84429 14.989 9.20829 15.4375 9.20829H16.7906V11.5418L19.1534 9.20829H21.3969C21.6124 9.20829 21.8191 9.12269 21.9715 8.97032C22.1238 8.81794 22.2094 8.61128 22.2094 8.39579V4.60413C22.2094 4.38864 22.1238 4.18197 21.9715 4.0296C21.8191 3.87723 21.6124 3.79163 21.3969 3.79163H21.3959Z"
    fill="currentColor"
  />
</svg>
