<svg
  width="26"
  height="26"
  viewBox="0 0 26 26"
  fill="none"
  xmlns="http://www.w3.org/2000/svg"
>
  <path
    d="M14.9717 23.8333H11.0284C10.7813 23.8333 10.5416 23.7489 10.3491 23.594C10.1566 23.4392 10.0228 23.2231 9.96993 22.9818L9.52902 20.9408C8.94083 20.6831 8.3831 20.3608 7.8661 19.9799L5.87602 20.6136C5.64046 20.6887 5.3863 20.681 5.15573 20.5918C4.92517 20.5025 4.73207 20.337 4.60852 20.1229L2.63252 16.7093C2.51026 16.4949 2.46436 16.2454 2.50235 16.0016C2.54033 15.7578 2.65994 15.5341 2.8416 15.367L4.38535 13.9587C4.31515 13.3207 4.31515 12.677 4.38535 12.039L2.8416 10.634C2.65968 10.4669 2.53991 10.243 2.50192 9.99889C2.46393 9.75483 2.50998 9.50509 2.63252 9.29063L4.60418 5.87488C4.72774 5.66072 4.92083 5.49527 5.1514 5.406C5.38196 5.31673 5.63613 5.30901 5.87168 5.38413L7.86177 6.01788C8.1261 5.82288 8.40127 5.64088 8.6851 5.47621C8.95918 5.32238 9.24085 5.18263 9.52902 5.05804L9.97102 3.01921C10.0236 2.77784 10.1572 2.5617 10.3495 2.40664C10.5418 2.25157 10.7813 2.16689 11.0284 2.16663H14.9717C15.2187 2.16689 15.4583 2.25157 15.6506 2.40664C15.8429 2.5617 15.9764 2.77784 16.029 3.01921L16.4754 5.05913C17.0632 5.31685 17.6206 5.63914 18.1372 6.02004L20.1284 5.38629C20.3638 5.31145 20.6177 5.31931 20.848 5.40857C21.0783 5.49782 21.2713 5.66312 21.3948 5.87704L23.3664 9.29279C23.6178 9.73371 23.5311 10.2916 23.1574 10.635L21.6136 12.0434C21.6838 12.6813 21.6838 13.3251 21.6136 13.963L23.1574 15.3714C23.5311 15.7159 23.6178 16.2727 23.3664 16.7136L21.3948 20.1294C21.2712 20.3435 21.0781 20.509 20.8476 20.5983C20.617 20.6875 20.3628 20.6952 20.1273 20.6201L18.1372 19.9864C17.6206 20.367 17.0632 20.6889 16.4754 20.9462L16.029 22.9818C15.9762 23.223 15.8426 23.4389 15.6503 23.5937C15.458 23.7486 15.2186 23.8331 14.9717 23.8333ZM8.25502 17.5814L9.14335 18.2314C9.34377 18.3787 9.55177 18.5141 9.76843 18.6376C9.9721 18.7557 10.1801 18.8619 10.3957 18.9583L11.4064 19.4014L11.9015 21.6666H14.1007L14.5958 19.4003L15.6065 18.9572C16.0474 18.7622 16.4667 18.5206 16.8556 18.2357L17.7439 17.5857L19.9561 18.2899L21.0557 16.3854L19.3408 14.8221L19.4621 13.7258C19.5163 13.2459 19.5163 12.7616 19.4621 12.2828L19.3408 11.1865L21.0568 9.61996L19.9561 7.71438L17.745 8.41854L16.8556 7.76854C16.4665 7.48221 16.0477 7.2385 15.6065 7.04163L14.5958 6.59854L14.1007 4.33329H11.9015L11.4032 6.59963L10.3957 7.04163C9.95388 7.23512 9.53495 7.4771 9.1466 7.76313L8.25718 8.41313L6.04718 7.70896L4.94543 9.61996L6.66035 11.181L6.53902 12.2785C6.48485 12.7584 6.48485 13.2426 6.53902 13.7215L6.66035 14.8178L4.94543 16.381L6.04502 18.2855L8.25502 17.5814ZM12.9957 17.3333C11.8464 17.3333 10.7442 16.8767 9.93155 16.0641C9.1189 15.2514 8.66235 14.1492 8.66235 13C8.66235 11.8507 9.1189 10.7485 9.93155 9.93583C10.7442 9.12317 11.8464 8.66663 12.9957 8.66663C14.145 8.66663 15.2472 9.12317 16.0598 9.93583C16.8725 10.7485 17.329 11.8507 17.329 13C17.329 14.1492 16.8725 15.2514 16.0598 16.0641C15.2472 16.8767 14.145 17.3333 12.9957 17.3333ZM12.9957 10.8333C12.5714 10.8337 12.1566 10.9587 11.8027 11.1928C11.4488 11.4268 11.1714 11.7596 11.005 12.1499C10.8385 12.5401 10.7903 12.9707 10.8663 13.3881C10.9423 13.8055 11.1391 14.1914 11.4325 14.4979C11.7258 14.8045 12.1027 15.0182 12.5164 15.1124C12.93 15.2067 13.3623 15.1775 13.7595 15.0284C14.1567 14.8792 14.5014 14.6167 14.7508 14.2735C15.0001 13.9302 15.1433 13.5213 15.1624 13.0975V13.5308V13C15.1624 12.4253 14.9341 11.8742 14.5277 11.4679C14.1214 11.0616 13.5703 10.8333 12.9957 10.8333Z"
    fill="currentColor"
  />
</svg>
