<svg
  width="26"
  height="26"
  viewBox="0 0 26 26"
  fill="none"
  xmlns="http://www.w3.org/2000/svg"
>
  <path
    d="M5.41667 13H6.59848C6.59848 12.6866 6.47397 12.386 6.25234 12.1643C6.0307 11.9427 5.7301 11.8182 5.41667 11.8182V13ZM3.25 13L2.41433 12.1643C2.07633 12.5023 1.97522 13.0106 2.15814 13.4523C2.34107 13.8939 2.772 14.1818 3.25 14.1818V13ZM13 3.25L13.8357 2.41433C13.3741 1.9528 12.6259 1.9528 12.1643 2.41433L13 3.25ZM22.75 13V14.1818C23.228 14.1818 23.6589 13.8939 23.8419 13.4523C24.0248 13.0106 23.9237 12.5023 23.5857 12.1643L22.75 13ZM20.5833 13V11.8182C19.9306 11.8182 19.4015 12.3473 19.4015 13H20.5833ZM5.41667 20.5833H4.23485H5.41667ZM8.56818 22.75C8.56818 23.4027 9.0973 23.9318 9.75 23.9318C10.4027 23.9318 10.9318 23.4027 10.9318 22.75H8.56818ZM11.9167 14.0833V15.2652V14.0833ZM15.0682 22.75C15.0682 23.4027 15.5973 23.9318 16.25 23.9318C16.9027 23.9318 17.4318 23.4027 17.4318 22.75H15.0682ZM5.41667 11.8182H3.25V14.1818H5.41667V11.8182ZM4.08567 13.8357L13.8357 4.08567L12.1643 2.41433L2.41433 12.1643L4.08567 13.8357ZM12.1643 4.08567L21.9143 13.8357L23.5857 12.1643L13.8357 2.41433L12.1643 4.08567ZM22.75 11.8182H20.5833V14.1818H22.75V11.8182ZM4.23485 13L4.23485 20.5833H6.59848L6.59848 13H4.23485ZM4.23485 20.5833C4.23485 21.4714 4.58763 22.3231 5.2156 22.9511L6.88694 21.2797C6.70225 21.095 6.59848 20.8445 6.59848 20.5833H4.23485ZM5.2156 22.9511C5.84356 23.579 6.69526 23.9318 7.58333 23.9318V21.5682C7.32213 21.5682 7.07163 21.4644 6.88694 21.2797L5.2156 22.9511ZM7.58333 23.9318H18.4167V21.5682H7.58333V23.9318ZM18.4167 23.9318C19.3047 23.9318 20.1564 23.579 20.7844 22.9511L19.1131 21.2797C18.9284 21.4644 18.6779 21.5682 18.4167 21.5682V23.9318ZM20.7844 22.9511C21.4124 22.3231 21.7652 21.4714 21.7652 20.5833H19.4015C19.4015 20.8445 19.2978 21.095 19.1131 21.2797L20.7844 22.9511ZM21.7652 20.5833V13H19.4015V20.5833H21.7652ZM10.9318 22.75V16.25H8.56818V22.75H10.9318ZM10.9318 16.25C10.9318 15.9888 11.0356 15.7383 11.2203 15.5536L9.54893 13.8823C8.92097 14.5102 8.56818 15.3619 8.56818 16.25H10.9318ZM11.2203 15.5536C11.405 15.3689 11.6555 15.2652 11.9167 15.2652V12.9015C11.0286 12.9015 10.1769 13.2543 9.54893 13.8823L11.2203 15.5536ZM11.9167 15.2652H14.0833V12.9015H11.9167V15.2652ZM14.0833 15.2652C14.3445 15.2652 14.595 15.3689 14.7797 15.5536L16.4511 13.8823C15.8231 13.2543 14.9714 12.9015 14.0833 12.9015V15.2652ZM14.7797 15.5536C14.9644 15.7383 15.0682 15.9888 15.0682 16.25H17.4318C17.4318 15.3619 17.079 14.5102 16.4511 13.8823L14.7797 15.5536ZM15.0682 16.25V22.75H17.4318V16.25H15.0682Z"
    fill="currentColor"
  />
</svg>
