<svg
  width="15"
  height="15"
  viewBox="0 0 15 15"
  fill="none"
  xmlns="http://www.w3.org/2000/svg"
>
  <path
    d="M7.5 2.5C8.53375 2.5 9.375 3.34125 9.375 4.375H10.625C10.625 2.65188 9.22312 1.25 7.5 1.25C5.77688 1.25 4.375 2.65188 4.375 4.375V5.625H3.75C3.06062 5.625 2.5 6.18563 2.5 6.875V12.5C2.5 13.1894 3.06062 13.75 3.75 13.75H11.25C11.9394 13.75 12.5 13.1894 12.5 12.5V6.875C12.5 6.18563 11.9394 5.625 11.25 5.625H5.625V4.375C5.625 3.34125 6.46625 2.5 7.5 2.5ZM11.2513 12.5H8.125V11.0763C8.49687 10.8594 8.75 10.4606 8.75 10C8.75 9.31063 8.18937 8.75 7.5 8.75C6.81063 8.75 6.25 9.31063 6.25 10C6.25 10.46 6.50313 10.8594 6.875 11.0763V12.5H3.75V6.875H11.25L11.2513 12.5Z"
    fill="currentColor"
  />
</svg>
<svg
  width="15"
  height="15"
  viewBox="0 0 15 15"
  fill="none"
  xmlns="http://www.w3.org/2000/svg"
>
  <path
    d="M7.5 2.5C8.53375 2.5 9.375 3.34125 9.375 4.375H10.625C10.625 2.65188 9.22312 1.25 7.5 1.25C5.77688 1.25 4.375 2.65188 4.375 4.375V5.625H3.75C3.06062 5.625 2.5 6.18563 2.5 6.875V12.5C2.5 13.1894 3.06062 13.75 3.75 13.75H11.25C11.9394 13.75 12.5 13.1894 12.5 12.5V6.875C12.5 6.18563 11.9394 5.625 11.25 5.625H5.625V4.375C5.625 3.34125 6.46625 2.5 7.5 2.5ZM11.2513 12.5H8.125V11.0763C8.49687 10.8594 8.75 10.4606 8.75 10C8.75 9.31063 8.18937 8.75 7.5 8.75C6.81063 8.75 6.25 9.31063 6.25 10C6.25 10.46 6.50313 10.8594 6.875 11.0763V12.5H3.75V6.875H11.25L11.2513 12.5Z"
    fill="currentColor"
  />
</svg>
