<svg
  width="26"
  height="26"
  viewBox="0 0 26 26"
  fill="none"
  xmlns="http://www.w3.org/2000/svg"
>
  <path
    d="M6.12735 22.1856C5.97181 22.3209 5.78091 22.409 5.57706 22.4395C5.37321 22.47 5.16488 22.4418 4.97652 22.3581C4.78816 22.2744 4.62759 22.1387 4.51367 21.9669C4.39974 21.7951 4.33719 21.5944 4.33335 21.3883V18.9584C3.75872 18.9584 3.20762 18.7301 2.80129 18.3238C2.39496 17.9174 2.16669 17.3663 2.16669 16.7917V9.20837C2.16669 8.63374 2.39496 8.08264 2.80129 7.67631C3.20762 7.26998 3.75872 7.04171 4.33335 7.04171H16.25C16.8247 7.04171 17.3758 7.26998 17.7821 7.67631C18.1884 8.08264 18.4167 8.63374 18.4167 9.20837V16.7917C18.4167 17.3663 18.1884 17.9174 17.7821 18.3238C17.3758 18.7301 16.8247 18.9584 16.25 18.9584H10.8366L6.12735 22.1856ZM7.04169 18.8349C7.1404 18.8343 7.23735 18.8086 7.32335 18.7601L9.8746 16.9856C10.0562 16.8594 10.272 16.7917 10.4932 16.7917H15.1667C15.454 16.7917 15.7296 16.6776 15.9327 16.4744C16.1359 16.2712 16.25 15.9957 16.25 15.7084V10.2917C16.25 10.0044 16.1359 9.72884 15.9327 9.52568C15.7296 9.32251 15.454 9.20837 15.1667 9.20837H5.41669C5.12937 9.20837 4.85382 9.32251 4.65066 9.52568C4.44749 9.72884 4.33335 10.0044 4.33335 10.2917V15.7084C4.33335 16.2934 4.7981 16.7722 5.41669 16.7917C5.86085 16.809 6.1826 16.8816 6.33102 17.0365C6.46969 17.1817 6.47727 17.4265 6.50002 17.8924C6.50327 17.9606 6.50327 18.0841 6.50002 18.2932C6.50002 18.4369 6.55709 18.5746 6.65867 18.6762C6.76025 18.7778 6.89803 18.8349 7.04169 18.8349ZM19.5 13.559C19.4966 13.6926 19.4966 13.8263 19.5 13.9599V13.559C19.5217 13.0932 19.5304 12.8484 19.669 12.7032C19.8174 12.5483 20.1392 12.4757 20.5834 12.4584C21.2019 12.4389 21.6667 11.96 21.6667 11.375V5.95837C21.6667 5.67106 21.5526 5.39551 21.3494 5.19234C21.1462 4.98918 20.8707 4.87504 20.5834 4.87504H10.8334C10.546 4.87504 10.2705 4.98918 10.0673 5.19234C9.86416 5.39551 9.75002 5.67106 9.75002 5.95837H7.58335V4.87504C7.58335 4.30041 7.81163 3.7493 8.21796 3.34298C8.62428 2.93665 9.17538 2.70837 9.75002 2.70837H21.6667C22.2413 2.70837 22.7924 2.93665 23.1988 3.34298C23.6051 3.7493 23.8334 4.30041 23.8334 4.87504V12.4584C23.8334 13.033 23.6051 13.5841 23.1988 13.9904C22.7924 14.3968 22.2413 14.625 21.6667 14.625V17.055C21.6629 17.261 21.6003 17.4618 21.4864 17.6335C21.3725 17.8053 21.2119 17.941 21.0235 18.0248C20.8352 18.1085 20.6268 18.1367 20.423 18.1062C20.2191 18.0756 20.0282 17.9875 19.8727 17.8523L19.5 17.5966V13.5601V13.559Z"
    fill="currentColor"
  />
</svg>
