<svg
  width="26"
  height="26"
  viewBox="0 0 26 26"
  fill="none"
  xmlns="http://www.w3.org/2000/svg"
>
  <path
    d="M10.8333 14.0833L8.66667 16.25M13 23.8333C13 23.8333 3.25 19.5 3.25 11.9166V5.41663L13 2.16663L22.75 5.41663V11.9166C22.75 19.5 13 23.8333 13 23.8333ZM13 15.1666C13.4268 15.1666 13.8494 15.0826 14.2437 14.9192C14.638 14.7559 14.9963 14.5165 15.2981 14.2147C15.5999 13.9129 15.8393 13.5547 16.0026 13.1603C16.1659 12.766 16.25 12.3434 16.25 11.9166C16.25 11.4898 16.1659 11.0672 16.0026 10.6729C15.8393 10.2786 15.5999 9.92032 15.2981 9.61853C14.9963 9.31674 14.638 9.07735 14.2437 8.91402C13.8494 8.75069 13.4268 8.66663 13 8.66663C12.138 8.66663 11.3114 9.00904 10.7019 9.61853C10.0924 10.228 9.75 11.0547 9.75 11.9166C9.75 12.7786 10.0924 13.6052 10.7019 14.2147C11.3114 14.8242 12.138 15.1666 13 15.1666V15.1666ZM13 8.66663V5.41663V8.66663ZM13 18.4166V15.1666V18.4166ZM6.5 11.9166H9.75H6.5ZM16.25 11.9166H19.5H16.25ZM8.66667 7.58329L10.8333 9.74996L8.66667 7.58329ZM15.1667 14.0833L17.3333 16.25L15.1667 14.0833ZM17.3333 7.58329L15.1667 9.74996L17.3333 7.58329Z"
    stroke="currentColor"
    stroke-opacity="0.85"
    stroke-width="2"
  />
</svg>
