<svg
  width="15"
  height="15"
  viewBox="0 0 15 15"
  fill="none"
  xmlns="http://www.w3.org/2000/svg"
>
  <path
    d="M6 3.75C5.80109 3.75 5.61032 3.82902 5.46967 3.96967C5.32902 4.11032 5.25 4.30109 5.25 4.5C5.25 4.69891 5.32902 4.88968 5.46967 5.03033C5.61032 5.17098 5.80109 5.25 6 5.25H10.1895L9.21975 6.21975C9.08313 6.3612 9.00754 6.55065 9.00924 6.7473C9.01095 6.94395 9.08983 7.13206 9.22889 7.27111C9.36794 7.41017 9.55605 7.48905 9.7527 7.49076C9.94935 7.49246 10.1388 7.41687 10.2802 7.28025L12.5303 5.03025C12.6709 4.8896 12.7498 4.69887 12.7498 4.5C12.7498 4.30113 12.6709 4.1104 12.5303 3.96975L10.2802 1.71975C10.2111 1.64812 10.1283 1.59098 10.0368 1.55167C9.9453 1.51237 9.84689 1.49168 9.7473 1.49081C9.64772 1.48995 9.54896 1.50892 9.45678 1.54663C9.36461 1.58434 9.28087 1.64003 9.21045 1.71045C9.14003 1.78087 9.08434 1.86461 9.04663 1.95678C9.00892 2.04896 8.98995 2.14772 8.99081 2.2473C8.99168 2.34689 9.01237 2.4453 9.05167 2.5368C9.09098 2.62831 9.14812 2.71106 9.21975 2.78025L10.1895 3.75H6Z"
    fill="currentColor"
  />
  <path
    d="M8.99999 11.25C9.1989 11.25 9.38967 11.171 9.53032 11.0303C9.67097 10.8897 9.74999 10.6989 9.74999 10.5C9.74999 10.3011 9.67097 10.1103 9.53032 9.96967C9.38967 9.82902 9.1989 9.75 8.99999 9.75H4.81049L5.78024 8.78025C5.85187 8.71107 5.90901 8.62831 5.94832 8.5368C5.98763 8.4453 6.00832 8.34689 6.00918 8.2473C6.01005 8.14772 5.99107 8.04896 5.95336 7.95678C5.91565 7.86461 5.85996 7.78087 5.78954 7.71045C5.71912 7.64003 5.63538 7.58434 5.54321 7.54663C5.45104 7.50892 5.35228 7.48995 5.25269 7.49081C5.15311 7.49168 5.05469 7.51237 4.96319 7.55167C4.87169 7.59098 4.78893 7.64812 4.71974 7.71975L2.46974 9.96975C2.32914 10.1104 2.25015 10.3011 2.25015 10.5C2.25015 10.6989 2.32914 10.8896 2.46974 11.0303L4.71974 13.2803C4.86119 13.4169 5.05065 13.4925 5.24729 13.4908C5.44394 13.489 5.63205 13.4102 5.77111 13.2711C5.91016 13.1321 5.98904 12.9439 5.99075 12.7473C5.99246 12.5507 5.91686 12.3612 5.78024 12.2197L4.81049 11.25H8.99999Z"
    fill="currentColor"
  />
</svg>
