<svg
  width="26"
  height="26"
  viewBox="0 0 26 26"
  fill="none"
  xmlns="http://www.w3.org/2000/svg"
>
  <path
    d="M11.0825 17.1492C11.505 17.5717 12.1875 17.5717 12.61 17.1492L17.2033 12.5558C17.6258 12.1333 17.6258 11.4508 17.2033 11.0175C17.1031 10.9171 16.9841 10.8374 16.853 10.783C16.7219 10.7287 16.5815 10.7007 16.4396 10.7007C16.2977 10.7007 16.1572 10.7287 16.0261 10.783C15.8951 10.8374 15.776 10.9171 15.6758 11.0175L11.8408 14.8417L10.3133 13.3142C9.89082 12.8917 9.20832 12.8917 8.77499 13.3142C8.34166 13.7367 8.35249 14.4192 8.77499 14.8417L11.0825 17.1492Z"
    fill="currentColor"
  />
  <path
    d="M20.5833 4.33337H5.41667C4.84203 4.33337 4.29093 4.56165 3.8846 4.96798C3.47827 5.3743 3.25 5.9254 3.25 6.50004V19.5C3.25 20.0747 3.47827 20.6258 3.8846 21.0321C4.29093 21.4384 4.84203 21.6667 5.41667 21.6667H20.5833C21.775 21.6667 22.75 20.6917 22.75 19.5V6.50004C22.75 5.9254 22.5217 5.3743 22.1154 4.96798C21.7091 4.56165 21.158 4.33337 20.5833 4.33337ZM20.5833 18.4167C20.5833 19.0125 20.0958 19.5 19.5 19.5H6.5C5.90417 19.5 5.41667 19.0125 5.41667 18.4167V8.66671H20.5833V18.4167Z"
    fill="currentColor"
  />
</svg>
